<svg width="716" height="120" viewBox="0 0 716 120" fill="none" xmlns="http://www.w3.org/2000/svg" xmlns:xlink="http://www.w3.org/1999/xlink">
<path d="M381.485,55.774C382.427,58.925 384.105,61.529 386.211,63.892C391.126,69.406 397.566,72.078 404.485,74.03C406.334,74.544 406.814,73.808 407.55,72.438C412.705,62.796 417.963,53.205 423.135,43.581C425.532,39.111 427.844,34.572 430.19,30.068C431.372,27.808 432.862,26.198 435.756,26.318C437.726,26.403 438.993,27.225 439.867,28.87C442.196,33.254 444.508,37.638 446.837,42.005C452.163,51.989 457.489,61.974 462.815,71.958C463.312,72.9 463.757,73.859 464.305,74.921C461.445,75.555 458.756,74.578 456.05,74.63C455.314,74.647 455.228,73.637 454.903,73.054C450.416,64.508 445.912,55.963 441.425,47.434C439.438,43.649 437.418,39.881 435.328,35.977C434.301,37.826 433.256,39.59 432.297,41.406C429.112,47.451 425.978,53.514 422.792,59.576C420.377,64.183 417.894,68.773 415.514,73.414C415,74.424 414.315,74.75 413.236,74.733C410.136,74.681 407.036,74.544 403.954,74.767C399.107,75.109 394.363,74.647 389.791,73.14C378.933,69.561 373.127,61.785 371.192,50.671C370.798,48.41 371.74,48.787 373.024,48.787C377.083,48.804 381.159,48.804 385.218,48.787C388.609,48.787 391.298,47.52 392.565,44.214C393.644,41.371 393.062,38.648 391.126,36.371C389.962,35.001 388.335,34.127 386.485,34.11C377.717,34.059 368.931,34.127 360.163,34.042C358.622,34.024 358.93,34.915 358.93,35.754C358.93,47.948 358.896,60.124 358.964,72.318C358.981,73.893 358.656,74.544 356.995,74.339C355.111,74.082 352.542,75.161 351.463,73.893C350.538,72.78 351.189,70.331 351.189,68.465C351.172,55.175 351.206,41.902 351.138,28.613C351.138,27.123 351.48,26.695 353.021,26.695C364.958,26.763 376.895,26.695 388.832,26.746C393.37,26.763 396.709,29.041 398.97,32.894C401.916,37.912 401.899,43.238 399.878,48.444C398.405,52.212 394.517,56.065 389.362,55.757C386.776,55.654 384.19,55.774 381.485,55.774Z" fill="#231F20"/>
<path d="M672.384,85.299C679.149,78.277 689.613,79.836 693.312,85.95C695.213,83.706 697.422,81.959 700.316,81.206C705.094,79.956 711.722,81.069 714.359,85.693C715.438,87.594 715.849,89.615 715.884,91.653C715.986,98.811 715.935,105.97 715.918,113.111C715.918,116.006 714.394,117.855 711.671,118.42C709.701,118.831 707.338,117.547 706.567,115.423C706.07,114.07 705.848,112.615 705.865,111.142C705.882,105.405 705.882,99.668 705.865,93.93C705.865,90.574 704.752,88.793 702.371,88.313C699.82,87.799 696.309,89.683 695.452,92.201C694.956,93.639 694.596,95.112 694.63,96.688C694.699,101.449 694.596,106.227 694.682,111.005C694.716,112.375 694.408,113.676 694.202,114.995C693.894,116.93 691.668,118.472 689.595,118.455C687.283,118.437 685.52,117.085 684.937,115.012C684.629,113.882 684.56,112.752 684.56,111.604C684.578,105.867 684.578,100.13 684.56,94.393C684.56,93.708 684.509,93.04 684.304,92.321C683.756,90.437 683.379,88.519 680.964,88.279C677.642,87.953 675.415,89.032 674.233,91.516C673.394,93.245 672.983,95.095 672.966,97.03C672.949,102.117 673.052,107.22 672.915,112.306C672.863,114.601 672.521,117.05 669.935,117.992C666.287,119.328 663.085,117.667 662.948,112.889C662.691,103.812 662.811,94.718 662.913,85.624C662.948,82.884 664.557,81 666.732,80.555C668.342,80.213 670.586,81.206 671.476,82.781C671.87,83.552 672.076,84.46 672.384,85.299Z" fill="#AC0538"/>
<path d="M197.844,36.508C197.844,49.164 197.844,61.203 197.861,73.26C197.861,74.51 198.084,75.521 196.115,74.818C194.847,74.373 193.289,74.63 191.885,74.75C190.446,74.887 190.069,74.442 190.069,72.969C190.138,60.655 190.103,48.342 190.103,36.011C190.103,33.494 190.155,30.976 190.069,28.459C190.035,27.328 190.429,27.037 191.491,27.089C193.357,27.174 195.241,27.243 197.108,27.072C198.94,26.917 200.242,27.517 201.424,28.904C205.774,33.973 210.192,38.991 214.576,44.043C220.194,50.534 225.811,57.042 231.411,63.532C231.822,64.012 232.199,64.543 232.593,65.022C233.363,64.423 233.055,63.875 233.072,63.413C233.569,51.767 233.5,40.121 233.449,28.459C233.449,27.346 233.774,27.02 234.853,27.089C236.771,27.191 239.306,26.472 240.453,27.431C241.669,28.442 240.796,31.062 240.796,32.963C240.83,46.304 240.779,59.662 240.864,73.003C240.882,74.544 240.385,74.733 239.032,74.75C236.686,74.784 234.305,74.322 231.976,75.058C231.411,75.229 231.308,74.767 231,74.424C226.085,68.824 221.084,63.276 216.203,57.658C210.689,51.322 205.26,44.917 199.797,38.546C199.3,37.998 198.752,37.467 197.844,36.508Z" fill="#231F20"/>
<path d="M608.744,65.33C610.491,59.696 612.084,54.592 613.659,49.489C615.732,42.758 617.855,36.028 619.842,29.263C620.321,27.654 621.041,27.037 622.77,27.105C626.264,27.243 626.298,27.123 627.292,30.342C630.58,40.858 633.834,51.373 637.105,61.888C637.413,62.898 637.413,64.029 638.252,65.073C640.941,58.086 643.578,51.236 646.199,44.385C648.288,38.939 650.36,33.493 652.381,28.03C652.655,27.294 653.049,27.191 653.648,27.191C654.933,27.191 656.234,27.225 657.519,27.157C658.769,27.088 658.769,27.791 658.444,28.613C656.817,32.791 655.155,36.953 653.546,41.149C649.521,51.561 645.496,61.974 641.523,72.403C640.53,75.006 638.321,76.102 635.683,75.126C635.187,74.938 635.067,74.578 634.93,74.116C633.132,68.173 631.333,62.248 629.501,56.322C627.566,50.037 625.579,43.769 623.473,36.987C622.942,38.58 622.531,39.744 622.171,40.909C618.797,51.921 615.423,62.933 612.084,73.945C611.827,74.801 611.433,75.161 610.474,75.178C606.689,75.298 606.672,75.349 605.456,72.266C600.969,60.809 596.482,49.335 592.012,37.878C590.848,34.898 589.7,31.901 588.484,28.938C587.936,27.602 588.176,27.14 589.717,27.14C594.153,27.174 594.17,27.105 595.814,31.421C599.856,42.073 603.863,52.743 607.888,63.412C608.093,63.84 608.299,64.303 608.744,65.33Z" fill="#8A8B8F"/>
<path d="M516.916,68.464C516.727,63.344 516.916,58.805 516.59,54.25C516.213,49.181 516.47,44.077 516.522,38.974C516.556,35.566 515.905,32.209 516.094,28.784C516.162,27.585 516.385,27.123 517.703,27.105C523.115,27.037 523.115,26.986 523.115,32.312C523.115,45.91 523.081,59.508 523.149,73.123C523.149,74.715 522.79,75.349 521.146,75.143C520.067,75.006 518.936,74.989 517.858,75.143C515.82,75.452 514.432,74.664 513.131,73.123C508.438,67.54 503.66,62.042 498.865,56.545C495.714,52.931 492.46,49.386 489.292,45.773C486.26,42.313 483.298,38.785 480.318,35.274C479.907,34.778 479.581,34.213 479.222,33.682C479.033,33.784 478.845,33.904 478.674,34.007C478.674,36.781 478.571,39.556 478.725,42.33C478.776,43.204 478.965,44.094 478.965,45.002C478.965,51.064 478.794,57.127 479.033,63.172C479.17,66.443 479.222,69.715 479.393,72.986C479.496,74.852 478.811,75.332 477.132,75.143C476.053,75.024 474.94,75.041 473.844,75.143C472.594,75.263 472.354,74.732 472.354,73.602C472.388,58.651 472.388,43.683 472.354,28.732C472.354,27.431 472.765,27.054 474.015,27.123C475.557,27.225 477.115,27.242 478.657,27.123C480.129,27.003 481.225,27.465 482.202,28.595C487.134,34.332 492.083,40.053 497.067,45.755C500.989,50.242 504.962,54.695 508.901,59.165C511.435,62.094 513.97,65.039 516.916,68.464Z" fill="#8A8B8F"/>
<path d="M689.219,75.914C683.516,75.983 677.967,75.195 672.709,72.848C670.277,71.752 668.119,70.28 666.39,68.242C665.756,67.505 665.705,66.854 666.561,66.221C667.845,65.262 669.096,64.268 670.38,63.292C671.202,62.676 671.733,62.641 672.538,63.618C676.374,68.242 681.392,70.434 687.403,70.502C692.181,70.554 696.908,70.519 701.344,68.293C703.947,66.991 705.728,65.142 706.396,62.179C706.704,60.809 706.379,59.799 705.608,58.84C703.45,56.065 700.35,54.901 697.131,53.873C691.205,51.989 684.971,51.527 678.994,49.9C675.227,48.872 671.493,47.725 668.462,44.968C665.122,41.936 665.756,35 669.472,32.123C674.49,28.236 680.245,26.814 686.461,26.283C691.376,25.872 696.172,26.198 700.933,27.157C705.111,27.996 708.828,29.708 711.705,33.031C712.647,34.11 712.167,34.692 711.328,35.343C711.225,35.428 711.122,35.497 711.02,35.566C709.821,36.285 708.93,37.895 707.612,37.895C706.259,37.895 705.454,36.233 704.323,35.411C698.997,31.558 693.089,30.342 686.633,31.25C683.533,31.695 680.673,32.586 678.104,34.469C674.679,36.987 674.559,41.44 679.251,43.7C682.488,45.259 685.947,45.79 689.39,46.475C695.332,47.674 701.429,48.153 707.149,50.362C710.574,51.681 713.88,53.257 715.37,57.024C717.134,61.511 715.079,67.231 710.66,70.365C706.122,73.585 701.052,75.023 695.572,75.554C693.449,75.777 691.342,75.863 689.219,75.914Z" fill="#8A8C8F"/>
<path d="M535.857,51.065C535.857,43.718 535.891,36.371 535.823,29.024C535.805,27.671 536.028,27.106 537.586,27.106C549.455,27.174 561.323,27.174 573.191,27.106C574.681,27.106 575.023,27.568 574.989,28.972C574.921,32.175 574.989,32.175 571.838,32.175C563.07,32.175 554.301,32.226 545.516,32.141C543.837,32.124 543.478,32.655 543.529,34.196C543.649,38.323 543.649,42.451 543.546,46.578C543.512,48.153 544.026,48.479 545.516,48.462C554.541,48.393 563.583,48.496 572.609,48.376C574.681,48.342 575.263,48.993 574.955,50.859C574.921,51.116 574.904,51.373 574.955,51.63C575.246,53.24 574.441,53.514 573.02,53.497C563.857,53.445 554.695,53.514 545.55,53.428C543.889,53.411 543.529,53.925 543.563,55.483C543.666,59.73 543.666,63.995 543.563,68.242C543.529,69.8 544.026,70.143 545.533,70.143C554.627,70.075 563.72,70.16 572.814,70.057C574.681,70.04 575.229,70.64 574.972,72.335C574.921,72.712 574.921,73.106 574.972,73.5C575.126,74.698 574.749,75.178 573.414,75.178C561.426,75.127 549.42,75.127 537.432,75.178C536.114,75.178 535.84,74.75 535.84,73.534C535.891,66.016 535.857,58.549 535.857,51.065Z" fill="#8B8A8F"/>
<path d="M346.308,74.938C343.397,75.572 340.828,74.527 338.225,74.716C337.591,74.767 337.437,74.271 337.18,73.791C334.406,68.499 331.614,63.242 328.822,57.95C324.986,50.671 321.15,43.393 317.263,36.011C316.458,37.381 315.653,38.649 314.951,39.967C310.566,48.325 306.217,56.717 301.815,65.074C300.308,67.951 298.647,70.76 297.157,73.654C296.729,74.476 296.301,74.767 295.41,74.75C293.098,74.699 290.769,74.733 288.166,74.733C289.348,72.455 290.409,70.314 291.557,68.191C294.126,63.396 296.729,58.618 299.315,53.822C303.836,45.465 308.34,37.107 312.861,28.733C313.855,26.9 315.447,26.301 317.451,26.335C319.403,26.37 320.859,27.055 321.784,28.853C324.387,33.836 327.024,38.786 329.662,43.735C334.217,52.315 338.79,60.878 343.362,69.458C344.304,71.239 345.246,72.986 346.308,74.938Z" fill="#231F20"/>
<path d="M154.533,35.891C151.861,40.944 149.327,45.756 146.758,50.585C142.665,58.292 138.537,65.981 134.479,73.722C134.033,74.579 133.52,74.75 132.68,74.733C130.351,74.699 128.039,74.716 125.488,74.716C126.652,72.506 127.765,70.417 128.878,68.328C132.424,61.7 135.969,55.072 139.531,48.462C143.007,41.988 146.518,35.532 149.995,29.075C150.988,27.226 152.478,26.335 154.619,26.318C156.759,26.301 158.266,27.089 159.26,28.973C161.914,34.025 164.586,39.077 167.257,44.112C171.899,52.863 176.505,61.632 181.198,70.366C182.003,71.856 182.91,73.277 183.544,74.921C180.821,75.555 178.252,74.476 175.649,74.699C174.913,74.767 174.759,74.168 174.485,73.654C171.779,68.482 169.056,63.31 166.316,58.138C162.445,50.842 158.558,43.512 154.533,35.891Z" fill="#231F20"/>
<path d="M579.202,100.49C579.202,94.067 580.726,88.895 585.179,84.785C587.474,82.679 590.214,81.566 593.126,80.966C597.304,80.093 601.449,80.418 605.49,82.028C608.796,83.347 611.433,85.333 613.043,88.553C614.344,91.173 613.968,93.759 612.101,94.855C609.566,96.345 607.546,95.746 605.576,93.057C604.754,91.944 604.069,90.711 602.922,89.854C598.041,86.241 592.218,88.21 590.094,93.417C588.228,97.955 588.262,102.528 590.677,106.809C593.845,112.443 601.106,112.632 605.079,107.049C605.696,106.175 606.193,105.216 606.809,104.326C607.957,102.665 610.08,102.065 611.913,102.87C613.711,103.658 614.653,105.799 614.259,107.751C613.231,112.632 610.012,115.355 605.542,116.93C600.747,118.626 595.866,118.729 590.985,117.359C584.408,115.526 581,110.868 579.63,104.446C579.271,102.956 579.099,101.432 579.202,100.49Z" fill="#AC0538"/>
<path d="M273.044,27.14C280.853,27.14 288.645,27.174 296.455,27.106C297.791,27.088 298.287,27.414 298.15,28.801C298.03,30.205 298.03,31.644 298.15,33.048C298.253,34.315 297.773,34.521 296.626,34.521C290.7,34.47 284.758,34.589 278.832,34.452C277,34.401 276.794,35.035 276.794,36.61C276.846,48.735 276.777,60.843 276.846,72.968C276.863,74.647 276.452,75.315 274.705,75.178C272.924,75.023 270.509,75.777 269.482,74.869C268.283,73.825 269.122,71.359 269.122,69.526C269.088,58.446 269.07,47.348 269.139,36.268C269.156,34.795 268.779,34.47 267.324,34.487C261.398,34.572 255.456,34.452 249.53,34.555C248.023,34.572 247.646,34.127 247.783,32.723C247.903,31.438 247.903,30.137 247.783,28.852C247.663,27.517 248.057,27.123 249.444,27.123C257.305,27.174 265.183,27.14 273.044,27.14Z" fill="#221E1F"/>
<path d="M567.625,100.181C571.239,102.682 571.41,109.909 569.304,113.265C566.204,118.163 560.449,119.396 555.757,117.615C555.226,117.41 554.678,117.187 554.421,116.605C554.147,116.211 553.77,115.869 553.925,115.321C554.815,113.899 556.442,113.385 557.692,112.426C562.025,109.121 565.348,105.096 567.625,100.181Z" fill="#B9132A"/>
<path d="M567.625,100.181C567.608,101.5 567.094,102.579 566.392,103.726C563.96,107.614 560.792,110.765 557.213,113.522C556.271,114.259 555.14,114.755 554.096,115.372C552.417,115.492 551.972,114.225 551.424,113.026C550.979,112.032 551.184,110.902 550.345,109.909C549.849,109.327 550.842,107.974 550.859,106.895C551.321,106.569 551.75,106.826 552.092,107.083C553.531,108.145 554.575,107.682 555.414,106.295C556.014,105.302 556.75,104.377 557.675,103.709C559.593,102.305 560.415,100.627 559.422,98.315C561.254,97.236 563.07,97.356 564.868,98.4C565.981,98.691 567.077,99 567.625,100.181Z" fill="#D6574A"/>
<path d="M564.868,98.4C564.508,98.554 564.217,98.451 563.823,98.314C562.915,97.989 561.956,97.167 561.049,98.434C560.621,99.017 560.021,98.229 559.473,98.366C559.199,98.674 558.822,98.777 558.428,98.811C554.318,98.948 551.407,101.894 551.253,106.072C551.253,106.364 551.184,106.62 550.979,106.826C550.945,107.682 552.006,108.658 550.653,109.361C550.568,109.412 550.516,109.566 550.465,109.669C552.503,110.816 551.064,113.71 553.068,114.909C553.411,115.115 553.702,115.337 554.096,115.372C554.216,115.783 554.318,116.194 554.438,116.605C550.602,114.652 548.187,109.48 549.883,104.48C552.212,97.595 558.052,96.122 563.96,97.664C564.217,97.732 564.885,97.766 564.868,98.4Z" fill="#8A2D3B"/>
<path d="M103.173,93.4C99.439,91.687 95.672,90.043 91.972,88.211C86.869,85.693 81.731,83.244 76.559,80.881C75.789,80.521 75.378,80.555 74.71,81.052C73.442,82.011 72.038,82.782 70.685,83.638C73.34,80.384 76.439,77.61 79.111,74.424C83.547,69.15 87.314,63.464 89.798,57.007C92.658,49.558 93.891,41.868 92.983,33.853C92.538,29.931 92.092,26.027 90.911,22.259C90.534,21.043 90.928,20.684 91.853,20.273C95.552,18.594 99.182,16.779 102.933,15.22C103.961,14.792 104.149,14.347 104.149,13.439C104.132,9.192 104.08,4.928 104.183,0.681C104.217,-0.861 103.669,-0.895 102.539,-0.364C96.99,2.239 91.424,4.791 85.876,7.394C76.354,11.881 66.866,16.385 57.361,20.889C50.134,24.314 42.924,27.739 35.714,31.165C31.655,33.1 27.631,35.103 23.555,37.022C17.475,39.899 11.327,42.639 5.282,45.602C1.582,47.417 -0.233,50.534 0.024,54.73C0.247,58.463 2.559,60.792 5.641,62.316C12.543,65.742 19.53,68.961 26.483,72.284C36.279,76.959 46.11,81.566 55.854,86.344C62.311,89.495 68.784,92.612 75.275,95.678C83.341,99.462 91.356,103.401 99.371,107.306C100.912,108.06 102.385,108.916 104.166,109.31C104.166,104.412 104.132,99.565 104.2,94.736C104.183,93.948 103.789,93.674 103.173,93.4ZM49.124,67.917C40.27,63.738 31.398,59.576 22.544,55.398C21.757,55.021 20.986,54.593 19.958,54.062C26.141,51.202 32.083,48.462 38.009,45.687C41.331,44.129 44.637,42.519 47.959,40.943C57.43,36.456 66.917,32.004 76.371,27.482C77.313,27.037 77.707,27.157 78.101,28.082C80.19,33.203 81.817,38.409 82.519,43.958C83.906,54.969 81.183,65.005 75.943,74.561C75.789,74.835 75.634,75.109 75.463,75.383C74.641,76.651 74.042,78.654 72.929,78.997C71.884,79.322 70.308,77.901 68.955,77.267C62.345,74.133 55.734,71.033 49.124,67.917Z" fill="#AC0538"/>
<path d="M656.046,94.016C654.778,88.416 651.576,84.375 646.267,82.131C642.105,80.367 637.79,80.179 633.354,81.138C629.826,81.891 626.658,83.364 624.346,86.07C621.092,89.855 619.465,94.342 619.893,98.931C619.893,100.13 619.876,100.85 619.893,101.552C620.167,107.991 622.993,112.923 628.661,116.057C632.686,118.284 636.968,118.832 641.557,118.129C646.404,117.393 650.411,115.389 653.22,111.348C656.885,106.056 657.433,100.165 656.046,94.016ZM646.986,98.983C646.986,102.476 646.644,105.439 644.554,107.991C641.369,111.861 635.426,112.478 631.967,108.197C628.353,103.744 628.405,95.027 632.121,90.608C636.248,85.676 643.989,87.44 646.164,93.742C646.798,95.558 647.226,97.424 646.986,98.983Z" fill="#AC0538"/>
<path d="M558.275,98.4C558.668,98.383 559.079,98.366 559.473,98.366C560.998,100.507 560.809,101.466 558.84,103.178C557.898,104 556.939,104.857 556.219,105.953C554.267,108.898 553.822,108.95 550.979,106.843C550.962,106.586 550.945,106.347 550.945,106.09C551.51,104.685 552.931,104.086 553.976,103.23C555.671,101.808 556.288,99.513 558.275,98.4Z" fill="#E29283"/>
<path d="M558.274,98.401C557.384,99.737 556.665,101.261 555.551,102.357C554.164,103.727 552.743,105.183 550.945,106.073C550.277,102.34 554.181,98.247 558.274,98.401Z" fill="#F6CFCB"/>
</svg>
