<svg width="532" height="124" viewBox="0 0 532 124" fill="none" xmlns="http://www.w3.org/2000/svg" xmlns:xlink="http://www.w3.org/1999/xlink">
<path d="M83.343,91.319C81.67,92.718 79.996,94.133 78.308,95.533C78.597,95.898 78.901,96.263 79.19,96.628C80.909,95.533 82.537,94.24 84.377,93.433C85.564,92.916 87.313,92.642 88.409,93.144C97.795,97.404 107.12,101.8 116.385,106.318C117.343,106.79 118.332,108.25 118.377,109.3C118.59,114.031 118.469,118.777 118.469,123.874C117.419,123.493 116.567,123.28 115.791,122.915C79.738,105.71 43.669,88.489 7.6,71.299C3.888,69.534 0.769,67.283 0.13,62.871C-0.6,57.821 1.728,54.17 7.326,51.523C20.53,45.286 33.735,39.094 46.939,32.872C69.576,22.224 92.212,11.56 114.863,0.926C115.883,0.439 116.963,0.044 118.286,-0.504C118.286,5.277 118.286,10.753 118.286,16.412C113.312,18.694 108.276,20.991 102.921,23.456C110.984,50.336 103.226,72.638 83.282,91.349C83.997,90.132 84.666,88.93 85.397,87.744C91.832,77.384 95.467,66.218 94.874,53.911C94.478,45.666 92.394,37.832 88.637,30.088C66.32,40.539 44.292,50.869 21.565,61.517C23.421,62.491 24.486,63.115 25.596,63.632C44.034,72.303 62.471,80.944 80.909,89.63C81.806,90.056 82.537,90.756 83.343,91.319Z" fill="#AA0A2F"/>
<path d="M410.458,84.549C407.522,84.549 405.088,84.549 402.38,84.549C402.38,66.675 402.38,48.815 402.38,30.621C403.399,30.575 404.51,30.469 405.62,30.469C418.155,30.454 430.706,30.439 443.241,30.469C452.688,30.484 459.275,37.482 459.153,47.309C459.031,57.319 452.87,63.587 443.241,63.511C441.172,63.495 439.088,63.511 436.395,63.511C441.081,75.894 450.923,81.157 462.728,84.443C446.314,89.433 424.788,72.79 425.412,55.676C430.949,55.676 436.517,55.828 442.054,55.63C446.953,55.448 450.132,52.071 450.239,47.446C450.345,42.761 447.424,39.353 442.648,38.608C442.191,38.532 441.72,38.456 441.263,38.456C431.512,38.456 421.761,38.44 412.01,38.471C411.568,38.471 411.127,38.669 410.443,38.836C410.458,53.988 410.458,69.094 410.458,84.549Z" fill="#000000"/>
<path d="M225.915,85.036C222.918,85.036 220.514,85.036 217.806,85.036C217.806,67.085 217.806,49.256 217.806,30.971C220.879,30.971 223.998,30.727 227.04,31.092C228.288,31.244 229.551,32.553 230.494,33.618C241.888,46.563 253.236,59.57 264.6,72.546C265.178,73.216 265.817,73.839 267.049,75.132C267.049,60.011 267.049,45.666 267.049,31.107C269.924,31.107 272.313,31.107 274.975,31.107C274.975,49.013 274.975,66.842 274.975,85.142C271.917,85.142 268.92,85.355 265.984,85.036C264.844,84.914 263.657,83.682 262.805,82.708C251.487,69.838 240.23,56.923 228.957,44.023C228.166,43.11 227.314,42.243 225.93,40.737C225.915,55.934 225.915,70.325 225.915,85.036Z" fill="#000000"/>
<path d="M531.063,84.945C522.437,85.629 522.437,85.629 518.71,78.555C512.093,65.99 505.46,53.424 498.523,40.296C497.671,41.771 497.032,42.775 496.469,43.825C489.943,56.056 483.28,68.226 477.028,80.594C475.202,84.214 473.088,85.933 469.072,85.188C468.174,85.021 467.231,85.158 465.679,85.158C466.272,83.849 466.653,82.845 467.155,81.917C475.719,66.051 484.315,50.214 492.864,34.333C494.157,31.944 495.709,29.997 498.63,30.027C501.55,30.058 503.072,32.02 504.349,34.409C512.777,50.336 521.281,66.233 529.754,82.145C530.165,82.952 530.515,83.788 531.063,84.945Z" fill="#000000"/>
<path d="M330.029,85.158C334.563,76.791 338.716,69.078 342.884,61.381C347.782,52.329 352.529,43.217 357.67,34.318C358.735,32.477 361.032,30.712 363.071,30.225C365.809,29.571 367.543,31.838 368.836,34.272C377.325,50.306 385.905,66.279 394.424,82.283C394.835,83.059 395.124,83.91 395.656,85.158C392.857,85.158 390.423,85.432 388.095,85.036C387.061,84.854 385.996,83.469 385.403,82.389C378.588,69.656 371.879,56.878 365.124,44.114C364.546,43.019 363.892,41.97 363.04,40.463C362.204,41.924 361.565,42.943 360.987,44.023C354.521,56.148 347.874,68.196 341.728,80.488C339.811,84.306 337.59,85.934 333.483,85.219C332.615,85.036 331.687,85.158 330.029,85.158Z" fill="#000000"/>
<path d="M209.181,84.731C202.974,86.374 199.597,84.488 196.935,78.829C191.322,66.918 184.78,55.447 178.619,43.81C178.087,42.806 177.509,41.817 176.718,40.357C175.896,41.817 175.272,42.867 174.694,43.947C168.168,56.193 161.505,68.363 155.253,80.731C153.473,84.26 151.389,85.857 147.54,85.188C146.551,85.021 145.532,85.066 143.98,84.975C144.68,83.53 145.182,82.434 145.745,81.37C154.157,65.807 162.585,50.26 170.952,34.682C172.275,32.218 173.751,30.042 176.87,30.058C179.973,30.088 181.433,32.263 182.742,34.743C191.078,50.473 199.475,66.172 207.842,81.887C208.329,82.769 208.709,83.697 209.181,84.731Z" fill="#000000"/>
<path d="M308.351,84.945C308.351,69.626 308.351,54.444 308.351,38.957C300.015,38.957 292.165,38.957 284.072,38.957C284.072,36.28 284.072,33.922 284.072,31.29C302.981,31.29 321.83,31.29 340.967,31.29C340.967,33.618 340.967,35.961 340.967,38.729C333.102,38.729 325.176,38.729 316.764,38.729C316.764,54.337 316.764,69.535 316.764,84.945C313.828,84.945 311.333,84.945 308.351,84.945Z" fill="#000000"/>
</svg>
