<svg width="76" height="80" viewBox="0 0 76 80" fill="none" xmlns="http://www.w3.org/2000/svg" xmlns:xlink="http://www.w3.org/1999/xlink">
<path d="M66.464,79.271C66.012,78.771 65.582,78.25 65.107,77.774C60.494,73.152 55.87,68.541 51.265,63.911C50.862,63.507 50.457,63.366 49.894,63.367C41.795,63.385 33.696,63.364 25.598,63.387C22.897,63.395 20.558,62.522 18.506,60.789C18.084,60.433 17.925,60.207 18.411,59.733C20.582,57.612 22.726,55.463 24.85,53.294C25.236,52.898 25.654,52.941 26.1,52.941C33.448,52.939 40.796,52.974 48.143,52.929C53.919,52.893 58.453,50.43 61.659,45.625C63.365,43.067 64.182,40.215 64.177,37.123C64.163,30.037 64.173,22.951 64.173,15.865C64.173,14.709 64.174,14.709 65.369,14.876C70.93,15.651 74.742,20.011 74.748,25.63C74.757,34.643 74.759,43.655 74.747,52.668C74.741,58.12 70.968,62.511 65.569,63.281C64.765,63.396 64.904,63.781 64.959,64.255C65.501,68.953 66.048,73.652 66.594,78.351C66.622,78.599 66.643,78.85 66.667,79.099C66.599,79.157 66.532,79.214 66.464,79.271Z" fill="#FFFFFF"/>
<path d="M58.995,10.153C58.989,3.739 54.354,-0.904 47.943,-0.909C35.339,-0.918 22.735,-0.887 10.131,-0.921C3.254,-0.939 -1.05,4.617 -0.959,10.137C-0.813,18.919 -0.802,27.706 -0.962,36.486C-1.065,42.105 2.916,46.956 8.349,47.629C8.924,47.7 8.954,47.928 8.895,48.381C8.774,49.319 8.694,50.263 8.584,51.202C8.11,55.276 7.63,59.35 7.15,63.457C7.614,63.349 7.817,62.986 8.084,62.72C12.867,57.949 17.65,53.176 22.409,48.383C22.885,47.904 23.355,47.703 24.03,47.705C32.03,47.727 40.029,47.726 48.029,47.716C54.353,47.709 58.986,43.097 58.994,36.797C59.006,27.916 59.005,19.035 58.995,10.153ZM36.801,26.467C32.752,26.487 28.702,26.474 24.652,26.474C20.601,26.474 16.552,26.483 12.502,26.469C11.158,26.464 10.063,25.685 9.714,24.562C9.329,23.321 9.733,22.111 10.772,21.351C11.297,20.968 11.886,20.831 12.521,20.831C20.62,20.83 28.72,20.822 36.82,20.837C38.495,20.839 39.742,22.055 39.764,23.614C39.787,25.211 38.528,26.459 36.801,26.467ZM48.258,14.155C47.724,15.41 46.689,15.892 45.352,15.889C39.903,15.875 34.452,15.884 29.002,15.884C23.553,15.884 18.102,15.89 12.652,15.88C10.568,15.876 9.27,14.389 9.644,12.48C9.881,11.271 10.891,10.375 12.166,10.25C12.36,10.231 12.558,10.238 12.753,10.238C23.62,10.238 34.488,10.234 45.355,10.241C47.668,10.242 49.104,12.169 48.258,14.155Z" fill="#FFFFFF"/>
</svg>
