<svg width="578" height="152" viewBox="0 0 578 152" fill="none" xmlns="http://www.w3.org/2000/svg" xmlns:xlink="http://www.w3.org/1999/xlink">
<path d="M138.039,150.674C137.986,149.623 136.953,149.668 136.387,149.39C125.198,143.885 113.974,138.471 102.767,133.011C92.036,127.785 81.333,122.532 70.602,117.306C60.563,112.421 50.478,107.616 40.475,102.669C29.78,97.371 18.861,92.522 8.391,86.784C5.562,85.23 3.084,83.201 1.351,80.417C-0.93,76.753 -0.338,71.042 3.245,67.352C6.083,64.442 9.558,62.61 13.15,60.904C22.758,56.333 32.348,51.745 41.948,47.147C50.901,42.864 59.844,38.563 68.797,34.279C76.573,30.562 84.359,26.853 92.144,23.136C101.896,18.475 111.648,13.806 121.409,9.154C127.273,6.361 133.154,3.596 139.027,0.839C141.344,-0.248 142.071,0.201 142.08,2.698C142.089,7.502 142.026,12.306 142.125,17.11C142.17,19.319 141.2,20.657 139.315,21.582C135.067,23.656 130.865,25.829 126.599,27.859C125.001,28.622 124.561,29.691 125.037,31.289C126.967,37.683 127.838,44.274 128.036,50.91C128.27,58.524 127.282,66.023 125.18,73.377C123.411,79.555 120.96,85.419 117.835,91.013C112.16,101.16 105.093,110.176 96.032,117.557C95.449,118.033 94.183,118.59 94.793,119.353C95.449,120.161 96.23,118.94 96.787,118.5C98.277,117.341 99.535,115.896 101.339,115.168C104.599,113.857 107.58,115.025 110.364,116.479C119.847,121.445 129.572,125.863 139.261,130.398C140.967,131.197 141.955,132.329 141.919,134.367C141.838,139.225 141.901,144.092 141.892,148.959C141.892,149.543 142.008,150.153 141.595,150.665C140.419,150.674 139.234,150.674 138.039,150.674ZM114.405,67.765C114.683,60.68 113.094,53.307 110.499,46.141C109.682,43.879 108.622,41.688 107.526,39.532C106.817,38.132 105.686,37.404 104.006,38.257C102.48,39.039 100.899,39.694 99.346,40.43C90.321,44.714 81.306,48.997 72.29,53.28C63.221,57.591 54.16,61.91 45.091,66.211C39.227,68.995 33.336,71.743 27.481,74.544C27.006,74.778 26.179,74.885 26.215,75.604C26.242,76.268 27.033,76.421 27.517,76.654C29.843,77.804 32.223,78.863 34.566,79.986C44.211,84.601 53.837,89.226 63.481,93.842C74.939,99.328 86.397,104.788 97.846,110.283C100.244,111.433 101.16,111.226 102.552,109.026C105.757,103.962 108.092,98.511 110.032,92.845C112.744,84.898 114.522,76.807 114.405,67.765Z" fill="#CA2137"/>
<path d="M494.084,84.593C492.091,85.329 490.026,85.087 488.005,84.88C479.052,83.964 471.339,80.507 465.547,73.404C461.847,68.86 459.62,63.634 458.588,57.887C458.237,55.912 459.171,54.933 461.479,54.915C465.807,54.87 470.145,54.888 474.473,54.879C476.323,54.87 478.136,54.699 479.816,53.792C481.845,52.688 483.219,51.054 483.83,48.836C484.512,46.375 484.386,43.861 483.74,41.445C483.048,38.868 481.136,37.431 478.558,36.911C477.813,36.758 477.023,36.758 476.251,36.758C466.22,36.722 456.19,36.695 446.169,36.677C443.25,36.677 442.738,37.171 442.729,40.107C442.703,53.927 442.694,67.738 442.711,81.558C442.711,83.282 442.496,84.862 440.574,85.356C438.419,85.913 436.147,86.155 434.324,84.548C433.409,83.74 433.606,82.348 433.606,81.162C433.615,65.098 433.615,49.024 433.624,32.959C433.624,32.43 433.606,31.891 433.642,31.361C433.786,28.946 434.657,28.048 437.09,28.048C450.497,28.066 463.913,28.003 477.319,28.209C483.479,28.308 488.732,30.544 491.408,36.632C494.686,44.085 494.022,51.179 488.921,57.654C486.946,60.159 483.955,61.021 481.01,61.73C478.594,62.314 476.125,62.664 473.629,62.817C470.773,62.988 469.543,63.778 471.231,66.957C474.455,73.054 479.385,77.292 485.329,80.534C488.158,82.025 491.103,83.228 494.084,84.593Z" fill="#0F1212"/>
<path d="M297.294,56.127C297.294,64.191 297.303,72.255 297.285,80.327C297.276,84.099 296.675,84.638 292.912,85.078C289.455,85.482 286.554,84.458 284.265,81.917C278.913,75.99 273.624,70.001 268.335,64.02C261.708,56.531 255.098,49.024 248.471,41.526C248.121,41.131 247.771,40.727 247.367,40.386C246.442,39.595 245.814,40.098 245.481,40.996C245.302,41.472 245.409,42.047 245.409,42.586C245.4,54.627 245.391,66.66 245.382,78.702C245.382,79.178 245.382,79.654 245.365,80.121C245.176,84.638 242.841,86.254 238.477,84.898C237.274,84.521 236.6,83.686 236.403,82.473C236.322,81.953 236.34,81.405 236.34,80.875C236.34,64.864 236.331,48.853 236.34,32.843C236.34,29.017 236.986,28.434 240.794,27.904C245.032,27.311 248.355,28.892 251.067,31.963C256.239,37.817 261.357,43.726 266.476,49.626C273.076,57.214 279.667,64.819 286.258,72.407C286.761,72.982 287.255,73.682 288.18,73.359C289.114,73.036 288.817,72.201 288.817,71.536C288.826,58.489 288.817,45.441 288.817,32.394C288.817,31.864 288.817,31.325 288.862,30.795C289.069,28.38 290.416,27.185 292.84,27.239C295.938,27.311 297.204,28.281 297.249,30.876C297.321,35.86 297.285,40.835 297.294,45.818C297.294,49.258 297.294,52.697 297.294,56.136C297.294,56.127 297.294,56.127 297.294,56.127Z" fill="#0F1212"/>
<path d="M566.972,85.06C562.563,85.356 560.543,82.204 558.774,78.684C553.26,67.702 547.738,56.729 542.242,45.747C541.084,43.43 539.764,41.185 538.794,38.76C538.506,38.051 538.192,37.027 537.168,37.108C536.172,37.18 535.884,38.114 535.48,38.931C533.083,43.807 530.631,48.656 528.162,53.496C523.492,62.646 518.787,71.779 514.136,80.947C512.25,84.664 507.904,86.416 504.105,84.745C502.507,84.045 503.225,82.725 503.701,81.692C504.518,79.923 505.497,78.235 506.404,76.511C514.064,61.991 521.706,47.471 529.383,32.959C530.209,31.397 531.044,29.808 532.104,28.407C534.888,24.725 539.018,24.689 541.784,28.38C544.307,31.747 546.049,35.59 548.016,39.29C555.334,53.056 562.599,66.849 569.908,80.615C571.875,84.332 571.489,85.006 566.972,85.06Z" fill="#0F1212"/>
<path d="M221.874,84.88C218.219,85.751 216.504,83.434 215.112,80.713C207.902,66.57 200.709,52.418 193.534,38.258C193.22,37.638 192.879,37.054 192.133,37.108C191.505,37.153 191.146,37.674 190.858,38.231C183.665,52.383 176.482,66.534 169.271,80.678C167.511,84.126 163.605,85.922 159.851,85.087C158.01,84.673 157.678,84.045 158.54,82.384C164.063,71.815 169.585,61.254 175.135,50.694C178.816,43.69 182.525,36.704 186.243,29.718C187.491,27.383 189.296,25.794 192.115,25.803C194.935,25.821 196.695,27.482 197.952,29.781C205.899,44.274 213.559,58.92 221.245,73.548C222.781,76.475 224.343,79.393 225.852,82.33C226.651,83.892 226.238,84.673 224.514,84.862C223.643,84.961 222.745,84.88 221.874,84.88Z" fill="#0F1212"/>
<path d="M421.771,85.015C418.736,85.159 416.482,83.893 415.117,81.199C411.283,73.62 407.493,66.014 403.677,58.426C400.309,51.727 396.942,45.028 393.53,38.357C393.242,37.791 393.027,36.947 392.075,37.001C391.186,37.054 390.935,37.818 390.629,38.41C383.392,52.598 376.181,66.804 368.961,81.01C367.048,84.764 363.044,86.308 359.2,84.728C357.728,84.126 358.051,82.95 358.59,81.89C361.248,76.754 363.942,71.635 366.644,66.517C372.778,54.879 378.92,43.241 385.071,31.613C385.735,30.365 386.409,29.107 387.352,28.039C389.803,25.273 393.027,25.094 395.793,27.536C398.163,29.637 399.348,32.493 400.776,35.205C405.176,43.556 409.612,51.898 413.994,60.249C417.757,67.406 421.492,74.572 425.192,81.764C426.341,83.991 425.883,84.674 423.36,84.889C422.83,84.952 422.301,84.979 421.771,85.015Z" fill="#0F1212"/>
<path d="M337.541,28.012C345.91,28.012 354.279,28.084 362.639,27.985C366.977,27.931 367.479,30.14 366.86,33.822C366.59,35.393 365.288,35.905 363.762,35.905C358.006,35.905 352.25,35.923 346.494,35.941C341.519,35.959 341.357,36.112 341.357,41.042C341.349,53.793 341.349,66.535 341.34,79.286C341.34,79.816 341.34,80.355 341.331,80.884C341.286,84.018 340.486,84.979 337.954,84.97C335.027,84.952 334.147,84.045 334.147,80.911C334.129,67.927 334.138,54.942 334.12,41.957C334.111,36.408 333.662,35.959 328.175,35.95C322.536,35.941 316.897,35.968 311.267,35.932C309.228,35.914 308.267,35.025 307.872,33.014C307.477,31.011 308.321,29 309.812,28.299C310.602,27.931 311.437,28.012 312.263,28.012C320.686,28.003 329.118,28.012 337.541,28.012Z" fill="#0F1212"/>
<path d="M239.214,127.74C235.658,127.74 232.093,127.848 228.546,127.704C225.897,127.597 224.864,126.582 224.379,123.96C223.885,121.266 224.146,118.518 224.182,115.797C224.227,112.493 223.831,109.17 224.496,105.875C224.864,104.016 225.933,103.01 227.782,102.642C229.318,102.337 230.845,102.319 232.389,102.319C237.436,102.319 242.473,102.328 247.52,102.31C248.651,102.31 249.756,102.48 250.878,102.642C253.976,103.1 254.353,105.614 254.488,107.94C254.515,108.407 254.255,108.766 253.815,108.874C252.486,109.188 251.157,109.467 249.819,109.718C248.876,109.898 248.687,109.269 248.75,108.542C248.849,107.329 248.229,107.042 247.143,107.042C242.042,107.069 236.942,107.078 231.841,107.042C230.548,107.033 230.072,107.5 230.09,108.82C230.153,112.969 230.144,117.117 230.09,121.266C230.072,122.658 230.647,123.161 232.003,123.152C236.987,123.116 241.97,123.116 246.954,123.152C248.229,123.161 248.786,122.748 248.759,121.419C248.66,117.001 249.316,117.467 244.952,117.441C243.524,117.432 242.105,117.396 240.677,117.45C238.639,117.512 239.079,116.076 239.007,114.872C238.926,113.651 239.232,113.005 240.65,113.032C244.682,113.103 248.714,113.049 252.755,113.058C253.626,113.058 254.569,113.13 254.542,114.28C254.443,117.647 254.901,121.041 254.219,124.382C253.788,126.474 252.737,127.453 250.627,127.686C246.81,128.09 243.003,127.74 239.214,127.74Z" fill="#0F1212"/>
<path d="M487.627,115.133C487.627,111.46 487.663,107.787 487.609,104.115C487.592,102.938 487.951,102.292 489.19,102.319C495.521,102.498 501.887,101.834 508.191,102.741C513.013,103.432 516.74,105.83 518.096,110.688C520.323,118.707 516.506,126.959 507.365,127.641C501.33,128.09 495.269,127.767 489.226,127.857C488.023,127.875 487.574,127.399 487.601,126.151C487.681,122.487 487.636,118.814 487.627,115.133ZM493.626,114.971C493.626,117.162 493.635,119.353 493.626,121.544C493.617,122.487 493.814,123.169 494.991,123.133C498.834,122.999 502.677,123.43 506.503,122.595C511.1,121.589 512.905,118.958 512.483,113.525C512.187,109.727 509.484,107.23 505.326,107.105C501.95,107.006 498.574,107.114 495.188,107.042C493.886,107.015 493.581,107.599 493.608,108.757C493.671,110.831 493.626,112.906 493.626,114.971Z" fill="#0F1212"/>
<path d="M463.661,127.857C459.925,127.857 456.181,127.803 452.445,127.884C450.901,127.911 450.389,127.399 450.407,125.828C450.479,118.653 450.47,111.478 450.407,104.303C450.398,102.813 450.946,102.31 452.382,102.319C459.863,102.355 467.343,102.382 474.814,102.301C476.592,102.283 476.637,103.19 476.672,104.528C476.708,105.973 476.439,106.701 474.751,106.665C469.471,106.575 464.191,106.629 458.902,106.638C456.54,106.647 456.351,106.845 456.396,109.152C456.459,112.565 456.459,112.565 459.863,112.565C462.116,112.565 464.379,112.627 466.624,112.547C468.438,112.484 468.223,113.678 468.241,114.81C468.259,115.959 468.241,116.947 466.606,116.902C463.823,116.83 461.03,116.929 458.237,116.866C456.765,116.83 456.298,117.378 456.351,118.859C456.495,123.152 456.432,123.152 460.814,123.152C465.565,123.152 470.315,123.206 475.056,123.125C476.502,123.098 477.032,123.583 476.834,124.966C476.798,125.199 476.798,125.442 476.834,125.675C477.077,127.336 476.493,127.983 474.706,127.911C471.024,127.758 467.343,127.857 463.661,127.857Z" fill="#0F1212"/>
<path d="M163.91,115.133C163.91,111.46 163.919,107.778 163.901,104.106C163.892,103.118 164.027,102.292 165.293,102.328C171.632,102.498 177.999,101.852 184.321,102.75C191.801,103.818 195.402,109.152 194.809,116.13C194.207,123.277 189.825,127.417 182.615,127.686C176.921,127.902 171.219,127.767 165.526,127.839C164.269,127.857 163.874,127.381 163.892,126.169C163.946,122.487 163.91,118.814 163.91,115.133ZM169.414,115.106C169.414,117.18 169.522,119.254 169.379,121.32C169.262,123.044 170.097,123.484 171.579,123.475C174.129,123.457 176.67,123.493 179.22,123.457C181.313,123.43 183.369,122.999 185.201,122.074C188.523,120.404 190.023,115.914 188.838,112.277C187.984,109.664 186.422,107.644 183.755,107.114C179.561,106.279 175.26,106.692 171.004,106.719C169.872,106.728 169.352,107.311 169.396,108.542C169.477,110.724 169.414,112.915 169.414,115.106Z" fill="#0F1212"/>
<path d="M432.007,110.724C428.721,115.097 425.587,119.308 422.417,123.493C421.106,125.226 420.684,125.235 419.391,123.528C416.526,119.766 413.698,115.968 410.878,112.169C410.483,111.639 410.07,111.172 409.522,110.777C408.921,111.325 409.199,112.017 409.19,112.627C409.172,117.072 409.1,121.526 409.235,125.971C409.298,128.162 407.933,127.722 406.667,127.803C405.284,127.902 404.503,127.686 404.521,125.944C404.619,118.769 404.592,111.595 404.539,104.42C404.53,103.001 404.889,102.462 406.415,102.417C408.427,102.363 409.792,102.92 411.031,104.626C413.94,108.649 417.128,112.466 420.136,116.417C421.079,117.647 421.654,117.512 422.516,116.345C425.668,112.124 428.882,107.967 432.079,103.782C432.968,102.624 435.788,101.95 437.063,102.57C437.638,102.848 437.727,103.342 437.727,103.908C437.727,111.379 437.718,118.85 437.736,126.321C437.736,127.381 437.278,127.749 436.237,127.803C432.34,127.991 432.34,128.027 432.34,124.121C432.34,120.323 432.349,116.533 432.331,112.735C432.358,112.106 432.465,111.451 432.007,110.724Z" fill="#0F1212"/>
<path d="M339.445,127.785C337.326,128.494 336.015,127.085 335.269,124.992C334.488,122.81 333.096,122.146 330.815,122.263C326.972,122.46 323.102,122.352 319.25,122.298C318.118,122.28 317.301,122.55 316.852,123.645C316.699,124.022 316.475,124.382 316.286,124.75C314.598,128.009 314.311,128.126 310.423,127.794C309.058,127.677 309.166,127.094 309.695,126.178C312.739,120.853 315.775,115.519 318.81,110.185C320.004,108.084 321.252,106 322.348,103.845C322.895,102.768 323.677,102.435 324.763,102.462C325.356,102.48 325.958,102.525 326.541,102.453C328.238,102.238 329.199,102.947 330.043,104.465C334.039,111.631 338.179,118.707 342.247,125.827C343.342,127.74 343.306,127.767 341.106,127.785C340.675,127.785 340.262,127.785 339.445,127.785ZM325.769,117.818C327.071,117.818 328.373,117.791 329.666,117.827C330.78,117.854 331.112,117.288 330.645,116.399C329.298,113.786 327.87,111.218 326.46,108.64C326.038,107.868 325.58,107.724 325.087,108.622C323.668,111.2 322.204,113.75 320.821,116.336C320.255,117.387 320.722,117.854 321.872,117.827C323.174,117.8 324.467,117.818 325.769,117.818Z" fill="#0F1212"/>
<path d="M574.426,127.785C572.252,128.486 571.049,127.022 570.277,124.939C569.514,122.9 568.203,122.137 565.949,122.263C562.105,122.478 558.235,122.388 554.383,122.29C552.964,122.254 552.174,122.811 551.626,123.987C551.455,124.364 551.267,124.732 551.06,125.091C549.534,127.767 548.232,128.351 545.215,127.776C543.832,127.516 544.406,126.744 544.774,126.097C547.109,121.931 549.48,117.773 551.833,113.606C553.575,110.526 555.38,107.473 557.032,104.348C557.804,102.885 558.81,102.31 560.426,102.445C562.141,102.579 563.802,102.139 564.961,104.249C568.966,111.541 573.195,118.716 577.335,125.935C578.368,127.731 578.341,127.767 576.23,127.794C575.755,127.785 575.279,127.785 574.426,127.785ZM560.713,117.809C560.713,117.818 560.713,117.818 560.713,117.809C562.015,117.818 563.327,117.791 564.629,117.827C565.877,117.863 566.128,117.207 565.634,116.264C564.323,113.759 562.887,111.317 561.602,108.802C561.01,107.644 560.516,107.868 560.031,108.73C558.594,111.299 557.202,113.903 555.802,116.498C555.317,117.396 555.64,117.818 556.619,117.809C557.984,117.809 559.349,117.809 560.713,117.809Z" fill="#0F1212"/>
<path d="M294.807,102.318C299.135,102.318 303.472,102.372 307.8,102.292C309.533,102.256 309.749,103.145 309.677,104.518C309.614,105.812 309.964,107.194 307.818,107.087C305.097,106.952 302.359,107.096 299.629,107.042C298.273,107.015 297.752,107.5 297.77,108.919C297.833,114.612 297.752,120.305 297.833,125.989C297.851,127.506 297.348,127.919 295.884,127.884C291.017,127.776 291.897,128.279 291.861,123.78C291.817,118.922 291.799,114.055 291.888,109.197C291.915,107.59 291.448,106.952 289.769,107.024C287.102,107.141 284.426,106.997 281.759,107.069C279.676,107.123 280.179,105.677 280.089,104.51C279.999,103.234 280.152,102.292 281.804,102.309C286.15,102.354 290.479,102.327 294.807,102.318Z" fill="#0F1212"/>
<path d="M351.684,115.007C351.684,111.397 351.729,107.778 351.666,104.169C351.639,102.768 352.187,102.274 353.552,102.301C358.069,102.382 357.539,101.78 357.548,106.261C357.557,111.173 357.602,116.094 357.521,121.005C357.494,122.658 358.123,123.179 359.712,123.161C364.75,123.098 369.787,123.197 374.825,123.107C376.522,123.08 376.962,123.699 376.863,125.289C376.764,126.681 377.061,127.938 374.87,127.902C367.758,127.785 360.646,127.839 353.534,127.875C352.178,127.884 351.63,127.453 351.666,126.025C351.738,122.352 351.684,118.68 351.684,115.007Z" fill="#0F1212"/>
<path d="M205.719,115.267C205.719,111.595 205.773,107.913 205.692,104.24C205.656,102.741 206.231,102.274 207.677,102.301C211.96,102.391 211.655,101.789 211.646,106.162C211.637,112.744 211.61,119.326 211.673,125.908C211.691,127.381 211.242,127.92 209.751,127.884C205.001,127.776 205.773,128.414 205.719,123.987C205.701,121.077 205.728,118.168 205.719,115.267Z" fill="#0F1212"/>
<path d="M535.615,115.079C535.615,118.751 535.579,122.424 535.633,126.097C535.651,127.372 535.301,127.893 533.927,127.875C528.593,127.803 529.662,128.18 529.617,123.69C529.563,117.288 529.644,110.894 529.572,104.491C529.554,102.857 530.111,102.256 531.727,102.3C536.109,102.399 535.588,101.762 535.606,106.189C535.624,109.152 535.615,112.115 535.615,115.079Z" fill="#0F1212"/>
<path d="M266.871,115.088C266.871,111.469 266.916,107.859 266.853,104.249C266.826,102.875 267.311,102.292 268.694,102.319C273.48,102.417 272.798,101.663 272.825,106.279C272.861,112.852 272.789,119.434 272.861,126.007C272.878,127.516 272.376,127.929 270.921,127.893C266.045,127.794 266.943,128.261 266.88,123.798C266.844,120.889 266.871,117.988 266.871,115.088Z" fill="#0F1212"/>
</svg>
