<svg width="754" height="124" viewBox="0 0 754 124" fill="none" xmlns="http://www.w3.org/2000/svg" xmlns:xlink="http://www.w3.org/1999/xlink">
<path d="M82.802,91.127C81.14,92.518 79.477,93.923 77.8,95.314C78.087,95.676 78.389,96.039 78.676,96.402C80.384,95.314 82.001,94.029 83.83,93.228C85.009,92.714 86.747,92.442 87.835,92.941C97.16,97.173 106.425,101.541 115.629,106.029C116.582,106.498 117.564,107.949 117.609,108.992C117.821,113.692 117.7,118.408 117.7,123.471C116.657,123.093 115.811,122.881 115.04,122.519C79.22,105.425 43.385,88.316 7.55,71.237C3.863,69.484 0.764,67.247 0.13,62.864C-0.596,57.846 1.717,54.219 7.278,51.589C20.397,45.393 33.516,39.241 46.635,33.06C69.124,22.48 91.614,11.885 114.118,1.321C115.131,0.837 116.204,0.444 117.519,-0.1C117.519,5.643 117.519,11.084 117.519,16.706C112.576,18.974 107.574,21.256 102.254,23.704C110.264,50.41 102.556,72.567 82.742,91.157C83.452,89.948 84.117,88.754 84.843,87.575C91.236,77.283 94.848,66.189 94.259,53.962C93.866,45.77 91.795,37.987 88.062,30.294C65.89,40.677 44.005,50.939 21.425,61.519C23.269,62.486 24.327,63.106 25.43,63.62C43.748,72.235 62.066,80.819 80.384,89.449C81.276,89.873 82.001,90.568 82.802,91.127Z" fill="#AA0A2F"/>
<path d="M407.795,84.402C404.878,84.402 402.46,84.402 399.77,84.402C399.77,66.643 399.77,48.899 399.77,30.823C400.782,30.778 401.886,30.672 402.989,30.672C415.443,30.657 427.912,30.642 440.365,30.672C449.751,30.687 456.295,37.639 456.174,47.403C456.054,57.348 449.932,63.575 440.365,63.499C438.31,63.484 436.239,63.499 433.564,63.499C438.219,75.802 447.998,81.031 459.726,84.296C443.418,89.253 422.032,72.719 422.652,55.716C428.153,55.716 433.685,55.867 439.186,55.67C444.053,55.489 447.212,52.134 447.318,47.539C447.424,42.884 444.522,39.498 439.776,38.758C439.322,38.682 438.854,38.607 438.401,38.607C428.713,38.607 419.025,38.592 409.337,38.622C408.898,38.622 408.46,38.818 407.78,38.985C407.795,54.038 407.795,69.046 407.795,84.402Z" fill="#000000"/>
<path d="M224.449,84.885C221.472,84.885 219.084,84.885 216.393,84.885C216.393,67.051 216.393,49.337 216.393,31.17C219.446,31.17 222.545,30.928 225.568,31.291C226.807,31.442 228.061,32.742 228.998,33.8C240.319,46.662 251.594,59.584 262.884,72.476C263.458,73.141 264.093,73.761 265.317,75.046C265.317,60.023 265.317,45.77 265.317,31.306C268.173,31.306 270.546,31.306 273.191,31.306C273.191,49.095 273.191,66.809 273.191,84.991C270.153,84.991 267.176,85.202 264.259,84.885C263.125,84.764 261.946,83.54 261.1,82.573C249.855,69.786 238.671,56.955 227.472,44.138C226.686,43.231 225.84,42.37 224.464,40.873C224.449,55.972 224.449,70.27 224.449,84.885Z" fill="#000000"/>
<path d="M527.617,84.794C519.048,85.474 519.048,85.474 515.345,78.446C508.77,65.962 502.181,53.478 495.289,40.435C494.442,41.901 493.808,42.899 493.248,43.941C486.765,56.093 480.145,68.184 473.933,80.472C472.119,84.069 470.019,85.776 466.028,85.036C465.137,84.87 464.2,85.006 462.658,85.006C463.248,83.706 463.625,82.708 464.124,81.786C472.633,66.023 481.173,50.289 489.666,34.51C490.951,32.138 492.493,30.203 495.395,30.233C498.296,30.263 499.808,32.213 501.077,34.586C509.45,50.41 517.899,66.204 526.317,82.013C526.726,82.814 527.073,83.645 527.617,84.794Z" fill="#000000"/>
<path d="M327.888,85.006C332.392,76.693 336.518,69.031 340.659,61.383C345.526,52.39 350.242,43.337 355.35,34.496C356.408,32.667 358.69,30.914 360.715,30.43C363.436,29.78 365.159,32.032 366.444,34.45C374.877,50.38 383.401,66.25 391.865,82.149C392.273,82.92 392.56,83.767 393.089,85.006C390.308,85.006 387.89,85.278 385.578,84.885C384.55,84.704 383.492,83.328 382.903,82.255C376.132,69.605 369.466,56.909 362.756,44.229C362.181,43.141 361.532,42.098 360.685,40.602C359.854,42.053 359.219,43.065 358.645,44.138C352.221,56.184 345.617,68.154 339.511,80.366C337.606,84.16 335.4,85.777 331.319,85.066C330.458,84.885 329.536,85.006 327.888,85.006Z" fill="#000000"/>
<path d="M207.824,84.582C201.657,86.215 198.302,84.341 195.657,78.718C190.08,66.884 183.581,55.488 177.46,43.926C176.931,42.929 176.357,41.946 175.571,40.495C174.755,41.946 174.135,42.989 173.561,44.062C167.077,56.229 160.457,68.32 154.245,80.607C152.477,84.114 150.406,85.701 146.583,85.036C145.6,84.87 144.588,84.915 143.046,84.824C143.741,83.388 144.24,82.3 144.799,81.242C153.157,65.781 161.53,50.334 169.843,34.858C171.158,32.409 172.624,30.248 175.722,30.263C178.805,30.293 180.256,32.455 181.556,34.918C189.838,50.546 198.181,66.144 206.494,81.756C206.978,82.633 207.355,83.555 207.824,84.582Z" fill="#000000"/>
<path d="M306.351,84.794C306.351,69.575 306.351,54.491 306.351,39.105C298.069,39.105 290.27,39.105 282.229,39.105C282.229,36.445 282.229,34.103 282.229,31.488C301.016,31.488 319.742,31.488 338.755,31.488C338.755,33.8 338.755,36.128 338.755,38.879C330.941,38.879 323.067,38.879 314.709,38.879C314.709,54.385 314.709,69.484 314.709,84.794C311.792,84.794 309.313,84.794 306.351,84.794Z" fill="#000000"/>
<path d="M549.477,84.977C547.487,84.977 545.874,83.364 545.874,81.374L545.874,35.665C545.874,33.456 547.665,31.665 549.874,31.665L578.696,31.665C580.277,31.665 581.559,32.947 581.559,34.529L581.559,34.529C581.559,36.11 580.277,37.392 578.696,37.392L557.081,37.392C554.872,37.392 553.081,39.183 553.081,41.392L553.081,51.406C553.081,53.615 554.872,55.406 557.081,55.406L576.022,55.406C577.604,55.406 578.886,56.688 578.886,58.269L578.886,58.269C578.886,59.851 577.604,61.133 576.022,61.133L557.081,61.133C554.872,61.133 553.081,62.923 553.081,65.133L553.081,81.374C553.081,83.364 551.468,84.977 549.477,84.977L549.477,84.977Z" fill="#909090"/>
<path d="M644.118,58.321C644.118,63.944 642.984,68.803 640.718,72.899C638.451,76.994 635.342,80.153 631.39,82.374C627.437,84.596 622.923,85.706 617.848,85.706C612.772,85.706 608.258,84.596 604.306,82.374C600.354,80.153 597.244,76.994 594.978,72.899C592.711,68.803 591.578,63.944 591.578,58.321C591.578,52.698 592.711,47.839 594.978,43.744C597.244,39.648 600.354,36.49 604.306,34.268C608.258,32.047 612.772,30.936 617.848,30.936C622.923,30.936 627.437,32.047 631.39,34.268C635.342,36.49 638.451,39.648 640.718,43.744C642.984,47.839 644.118,52.698 644.118,58.321ZM637.143,58.321C637.143,53.705 636.281,49.809 634.557,46.633C632.852,43.457 630.537,41.054 627.612,39.422C624.706,37.791 621.451,36.975 617.848,36.975C614.244,36.975 610.98,37.791 608.055,39.422C605.149,41.054 602.834,43.457 601.109,46.633C599.404,49.809 598.552,53.705 598.552,58.321C598.552,62.937 599.404,66.833 601.109,70.009C602.834,73.185 605.149,75.589 608.055,77.22C610.98,78.851 614.244,79.667 617.848,79.667C621.451,79.667 624.706,78.851 627.612,77.22C630.537,75.589 632.852,73.185 634.557,70.009C636.281,66.833 637.143,62.937 637.143,58.321Z" fill="#909090"/>
<path d="M653.367,37.392C651.786,37.392 650.504,36.11 650.504,34.529L650.504,34.529C650.504,32.947 651.786,31.665 653.367,31.665L692.276,31.665C693.857,31.665 695.139,32.947 695.139,34.529L695.139,34.529C695.139,36.11 693.857,37.392 692.276,37.392L680.425,37.392C678.216,37.392 676.425,39.183 676.425,41.392L676.425,81.374C676.425,83.364 674.812,84.977 672.822,84.977L672.822,84.977C670.831,84.977 669.218,83.364 669.218,81.374L669.218,41.392C669.218,39.183 667.427,37.392 665.218,37.392L653.367,37.392Z" fill="#909090"/>
<path d="M754,58.321C754,63.944 752.866,68.803 750.6,72.899C748.334,76.994 745.224,80.153 741.272,82.374C737.32,84.596 732.806,85.706 727.73,85.706C722.654,85.706 718.14,84.596 714.188,82.374C710.236,80.153 707.127,76.994 704.86,72.899C702.593,68.803 701.46,63.944 701.46,58.321C701.46,52.698 702.593,47.839 704.86,43.744C707.127,39.648 710.236,36.49 714.188,34.268C718.14,32.047 722.654,30.936 727.73,30.936C732.806,30.936 737.32,32.047 741.272,34.268C745.224,36.49 748.334,39.648 750.6,43.744C752.866,47.839 754,52.698 754,58.321ZM747.026,58.321C747.026,53.705 746.164,49.809 744.439,46.633C742.734,43.457 740.419,41.054 737.494,39.422C734.588,37.791 731.333,36.975 727.73,36.975C724.126,36.975 720.862,37.791 717.937,39.422C715.031,41.054 712.716,43.457 710.991,46.633C709.287,49.809 708.434,53.705 708.434,58.321C708.434,62.937 709.287,66.833 710.991,70.009C712.716,73.185 715.031,75.589 717.937,77.22C720.862,78.851 724.126,79.667 727.73,79.667C731.333,79.667 734.588,78.851 737.494,77.22C740.419,75.589 742.734,73.185 744.439,70.009C746.164,66.833 747.026,62.937 747.026,58.321Z" fill="#909090"/>
</svg>
