<svg width="718" height="168" viewBox="0 0 718 168" fill="none" xmlns="http://www.w3.org/2000/svg" xmlns:xlink="http://www.w3.org/1999/xlink">
<path d="M112.68,124.027C110.418,125.918 108.155,127.829 105.872,129.719C106.263,130.212 106.674,130.705 107.065,131.199C109.389,129.719 111.59,127.973 114.079,126.884C115.683,126.185 118.048,125.815 119.529,126.493C132.219,132.247 144.827,138.185 157.353,144.288C158.648,144.925 159.985,146.897 160.047,148.315C160.335,154.705 160.17,161.116 160.17,168C158.751,167.486 157.599,167.199 156.55,166.705C107.806,143.466 59.04,120.205 10.275,96.986C5.256,94.603 1.04,91.562 0.176,85.603C-0.811,78.781 2.336,73.849 9.905,70.274C27.757,61.849 45.61,53.486 63.462,45.082C94.067,30.699 124.671,16.295 155.296,1.932C156.674,1.274 158.134,0.74 159.924,0C159.924,7.808 159.924,15.205 159.924,22.849C153.198,25.932 146.39,29.034 139.15,32.363C150.051,68.671 139.562,98.795 112.598,124.068C113.565,122.425 114.47,120.801 115.457,119.199C124.157,105.205 129.072,90.123 128.27,73.5C127.735,62.363 124.918,51.781 119.838,41.322C89.665,55.438 59.884,69.39 29.156,83.774C31.665,85.089 33.105,85.932 34.606,86.63C59.534,98.342 84.462,110.014 109.389,121.747C110.603,122.322 111.59,123.267 112.68,124.027Z" fill="#FFFFFF"/>
<path d="M554.941,114.884C550.972,114.884 547.681,114.884 544.02,114.884C544.02,90.74 544.02,66.617 544.02,42.041C545.398,41.98 546.9,41.836 548.401,41.836C565.349,41.815 582.317,41.795 599.264,41.836C612.037,41.856 620.942,51.308 620.778,64.582C620.613,78.103 612.283,86.569 599.264,86.466C596.467,86.445 593.649,86.466 590.009,86.466C596.344,103.192 609.651,110.301 625.611,114.74C603.419,121.48 574.316,99 575.159,75.884C582.646,75.884 590.173,76.089 597.66,75.822C604.283,75.575 608.581,71.014 608.725,64.767C608.869,58.438 604.92,53.836 598.462,52.829C597.845,52.726 597.208,52.623 596.59,52.623C583.407,52.623 570.223,52.603 557.039,52.644C556.443,52.644 555.846,52.911 554.921,53.137C554.941,73.603 554.941,94.007 554.941,114.884Z" fill="#FFFFFF"/>
<path d="M305.438,115.541C301.386,115.541 298.137,115.541 294.476,115.541C294.476,91.294 294.476,67.212 294.476,42.514C298.63,42.514 302.847,42.185 306.96,42.678C308.647,42.883 310.354,44.651 311.629,46.089C327.034,63.575 342.377,81.144 357.741,98.671C358.523,99.575 359.386,100.418 361.052,102.164C361.052,81.74 361.052,62.363 361.052,42.699C364.94,42.699 368.169,42.699 371.768,42.699C371.768,66.883 371.768,90.966 371.768,115.685C367.634,115.685 363.582,115.972 359.613,115.541C358.07,115.377 356.466,113.712 355.314,112.397C340.012,95.014 324.792,77.568 309.552,60.144C308.482,58.911 307.33,57.74 305.459,55.705C305.438,76.233 305.438,95.671 305.438,115.541Z" fill="#FFFFFF"/>
<path d="M718,115.418C706.338,116.342 706.338,116.342 701.299,106.788C692.352,89.815 683.385,72.842 674.006,55.11C672.854,57.103 671.991,58.459 671.23,59.877C662.406,76.397 653.398,92.836 644.945,109.541C642.476,114.431 639.618,116.753 634.188,115.747C632.974,115.52 631.699,115.705 629.601,115.705C630.403,113.938 630.918,112.582 631.596,111.329C643.176,89.897 654.796,68.507 666.355,47.055C668.103,43.829 670.201,41.199 674.15,41.24C678.099,41.281 680.156,43.932 681.884,47.158C693.278,68.671 704.775,90.144 716.231,111.637C716.787,112.726 717.26,113.856 718,115.418Z" fill="#FFFFFF"/>
<path d="M446.202,115.705C452.331,104.404 457.946,93.986 463.581,83.589C470.204,71.363 476.621,59.055 483.573,47.034C485.012,44.548 488.118,42.164 490.874,41.507C494.576,40.623 496.921,43.685 498.669,46.972C510.146,68.63 521.746,90.205 533.263,111.822C533.819,112.87 534.21,114.02 534.929,115.705C531.145,115.705 527.854,116.075 524.707,115.541C523.309,115.294 521.869,113.425 521.067,111.966C511.853,94.767 502.783,77.507 493.651,60.267C492.869,58.787 491.985,57.37 490.833,55.335C489.702,57.308 488.838,58.685 488.056,60.144C479.315,76.52 470.327,92.794 462.018,109.397C459.426,114.555 456.424,116.753 450.87,115.788C449.698,115.541 448.443,115.705 446.202,115.705Z" fill="#FFFFFF"/>
<path d="M282.814,115.13C274.422,117.349 269.856,114.801 266.257,107.158C258.668,91.069 249.824,75.575 241.494,59.856C240.774,58.5 239.992,57.164 238.923,55.192C237.812,57.164 236.969,58.582 236.187,60.041C227.364,76.582 218.355,93.021 209.902,109.726C207.496,114.493 204.678,116.651 199.475,115.747C198.138,115.521 196.76,115.582 194.662,115.459C195.608,113.507 196.287,112.027 197.048,110.589C208.421,89.569 219.816,68.569 231.128,47.527C232.917,44.199 234.912,41.26 239.129,41.281C243.324,41.322 245.299,44.26 247.068,47.61C258.339,68.856 269.692,90.062 281.004,111.288C281.662,112.48 282.176,113.733 282.814,115.13Z" fill="#FFFFFF"/>
<path d="M416.893,115.418C416.893,94.726 416.893,74.219 416.893,53.301C405.622,53.301 395.009,53.301 384.067,53.301C384.067,49.685 384.067,46.5 384.067,42.945C409.633,42.945 435.116,42.945 460.99,42.945C460.99,46.089 460.99,49.254 460.99,52.993C450.356,52.993 439.641,52.993 428.267,52.993C428.267,74.076 428.267,94.603 428.267,115.418C424.297,115.418 420.924,115.418 416.893,115.418Z" fill="#FFFFFF"/>
<path d="M232.714,146.443L232.714,129.366L236.293,129.366L236.293,146.443L232.714,146.443Z" fill="#FFFFFF"/>
<path d="M255.254,146.443L247.806,133.293C247.846,133.649 247.883,134.004 247.915,134.36C247.947,134.667 247.972,134.998 247.988,135.353C248.012,135.709 248.024,136.048 248.024,136.371L248.024,146.443L244.846,146.443L244.846,129.366L248.934,129.366L256.492,142.625C256.451,142.286 256.415,141.93 256.382,141.559C256.35,141.243 256.322,140.888 256.297,140.492C256.281,140.096 256.273,139.696 256.273,139.292L256.273,129.366L259.451,129.366L259.451,146.443L255.254,146.443Z" fill="#FFFFFF"/>
<path d="M283.253,137.777C283.253,139.199 283.039,140.452 282.611,141.534C282.182,142.609 281.596,143.51 280.852,144.237C280.108,144.964 279.226,145.514 278.207,145.885C277.196,146.257 276.104,146.443 274.932,146.443L268.017,146.443L268.017,129.366L274.204,129.366C275.53,129.366 276.747,129.532 277.855,129.863C278.963,130.194 279.917,130.704 280.718,131.39C281.519,132.077 282.141,132.95 282.586,134.008C283.031,135.067 283.253,136.323 283.253,137.777ZM279.651,137.777C279.651,136.783 279.513,135.931 279.238,135.22C278.971,134.509 278.595,133.927 278.11,133.475C277.625,133.014 277.042,132.675 276.363,132.457C275.692,132.239 274.948,132.13 274.131,132.13L271.596,132.13L271.596,143.679L274.628,143.679C275.348,143.679 276.011,143.554 276.618,143.304C277.232,143.053 277.762,142.682 278.207,142.189C278.66,141.688 279.012,141.07 279.262,140.334C279.521,139.599 279.651,138.747 279.651,137.777Z" fill="#FFFFFF"/>
<path d="M307.808,137.826C307.808,139.159 307.609,140.371 307.213,141.462C306.817,142.552 306.247,143.486 305.503,144.261C304.759,145.037 303.849,145.635 302.773,146.055C301.706,146.475 300.497,146.685 299.146,146.685C297.715,146.685 296.461,146.467 295.385,146.031C294.318,145.586 293.424,144.972 292.705,144.188C291.985,143.397 291.443,142.459 291.079,141.377C290.723,140.294 290.545,139.11 290.545,137.826C290.545,136.493 290.731,135.289 291.103,134.214C291.483,133.14 292.037,132.227 292.765,131.475C293.501,130.716 294.403,130.134 295.47,129.73C296.546,129.318 297.779,129.112 299.17,129.112C300.561,129.112 301.791,129.318 302.858,129.73C303.934,130.142 304.836,130.728 305.563,131.487C306.299,132.247 306.857,133.164 307.237,134.238C307.618,135.305 307.808,136.501 307.808,137.826ZM304.156,137.826C304.156,136.929 304.047,136.121 303.829,135.402C303.618,134.675 303.303,134.053 302.882,133.535C302.462,133.018 301.94,132.622 301.318,132.348C300.703,132.065 299.987,131.924 299.17,131.924C298.337,131.924 297.605,132.065 296.975,132.348C296.352,132.622 295.83,133.018 295.41,133.535C294.989,134.053 294.674,134.675 294.464,135.402C294.253,136.121 294.148,136.929 294.148,137.826C294.148,138.715 294.253,139.531 294.464,140.274C294.682,141.009 295.001,141.643 295.422,142.177C295.842,142.71 296.364,143.126 296.987,143.425C297.609,143.724 298.329,143.873 299.146,143.873C300.02,143.873 300.772,143.724 301.402,143.425C302.033,143.118 302.551,142.698 302.955,142.165C303.368,141.623 303.671,140.985 303.865,140.25C304.059,139.506 304.156,138.698 304.156,137.826Z" fill="#FFFFFF"/>
<path d="M326.151,146.443L318.702,133.293C318.743,133.649 318.779,134.004 318.811,134.36C318.844,134.667 318.868,134.998 318.884,135.353C318.908,135.709 318.921,136.048 318.921,136.371L318.921,146.443L315.742,146.443L315.742,129.366L319.83,129.366L327.388,142.625C327.348,142.286 327.311,141.93 327.279,141.559C327.246,141.243 327.218,140.888 327.194,140.492C327.178,140.096 327.17,139.696 327.17,139.292L327.17,129.366L330.348,129.366L330.348,146.443L326.151,146.443Z" fill="#FFFFFF"/>
<path d="M338.913,146.443L338.913,129.366L352.355,129.366L352.355,132.13L342.492,132.13L342.492,136.42L351.615,136.42L351.615,139.183L342.492,139.183L342.492,143.679L352.852,143.679L352.852,146.443L338.913,146.443Z" fill="#FFFFFF"/>
<path d="M374.64,141.522C374.64,142.298 374.499,143.005 374.216,143.643C373.933,144.273 373.492,144.815 372.893,145.267C372.303,145.72 371.543,146.071 370.613,146.322C369.691,146.564 368.591,146.685 367.313,146.685C366.181,146.685 365.182,146.584 364.317,146.382C363.451,146.18 362.707,145.881 362.085,145.485C361.47,145.089 360.969,144.601 360.58,144.019C360.2,143.429 359.925,142.754 359.755,141.995L363.213,141.425C363.31,141.805 363.451,142.152 363.637,142.468C363.823,142.783 364.078,143.057 364.402,143.292C364.733,143.518 365.142,143.696 365.627,143.825C366.12,143.946 366.715,144.007 367.41,144.007C368.623,144.007 369.549,143.825 370.188,143.461C370.835,143.09 371.159,142.512 371.159,141.728C371.159,141.26 371.029,140.876 370.77,140.577C370.512,140.278 370.168,140.031 369.739,139.838C369.311,139.644 368.817,139.482 368.259,139.353C367.701,139.224 367.119,139.098 366.512,138.977C366.027,138.864 365.542,138.747 365.057,138.626C364.571,138.504 364.106,138.359 363.662,138.189C363.225,138.02 362.817,137.818 362.436,137.583C362.056,137.349 361.725,137.062 361.442,136.723C361.167,136.375 360.948,135.971 360.787,135.511C360.633,135.05 360.556,134.509 360.556,133.887C360.556,133.039 360.726,132.311 361.066,131.705C361.405,131.099 361.874,130.607 362.473,130.227C363.079,129.839 363.799,129.556 364.632,129.378C365.465,129.201 366.375,129.112 367.362,129.112C368.478,129.112 369.432,129.201 370.225,129.378C371.025,129.548 371.692,129.811 372.226,130.166C372.768,130.522 373.193,130.97 373.5,131.511C373.815,132.045 374.046,132.671 374.191,133.39L370.722,133.863C370.544,133.127 370.18,132.574 369.63,132.202C369.088,131.831 368.308,131.645 367.289,131.645C366.658,131.645 366.132,131.701 365.712,131.814C365.299,131.919 364.968,132.065 364.717,132.251C364.474,132.437 364.301,132.655 364.195,132.905C364.09,133.148 364.038,133.406 364.038,133.681C364.038,134.101 364.139,134.448 364.341,134.723C364.543,134.99 364.826,135.216 365.19,135.402C365.554,135.58 365.987,135.733 366.488,135.862C366.998,135.984 367.556,136.109 368.162,136.238C368.696,136.351 369.226,136.472 369.751,136.602C370.277,136.723 370.778,136.868 371.256,137.038C371.733,137.208 372.178,137.414 372.59,137.656C373.003,137.898 373.358,138.197 373.658,138.553C373.965,138.9 374.203,139.316 374.373,139.801C374.551,140.286 374.64,140.86 374.64,141.522Z" fill="#FFFFFF"/>
<path d="M382.49,146.443L382.49,129.366L386.069,129.366L386.069,146.443L382.49,146.443Z" fill="#FFFFFF"/>
<path d="M406.704,146.443L405.188,142.08L398.674,142.08L397.157,146.443L393.579,146.443L399.814,129.366L404.036,129.366L410.247,146.443L406.704,146.443ZM402.701,134.481C402.604,134.198 402.507,133.915 402.41,133.632C402.321,133.342 402.24,133.079 402.167,132.845C402.103,132.602 402.046,132.404 401.998,132.251C401.957,132.097 401.933,132.012 401.925,131.996C401.917,132.02 401.892,132.109 401.852,132.263C401.812,132.416 401.755,132.61 401.682,132.845C401.617,133.079 401.537,133.342 401.44,133.632C401.351,133.915 401.258,134.198 401.161,134.481L399.474,139.389L404.387,139.389L402.701,134.481Z" fill="#FFFFFF"/>
<path d="M428.202,146.443L420.753,133.293C420.793,133.649 420.83,134.004 420.862,134.36C420.895,134.667 420.919,134.998 420.935,135.353C420.959,135.709 420.971,136.048 420.971,136.371L420.971,146.443L417.793,146.443L417.793,129.366L421.881,129.366L429.439,142.625C429.398,142.286 429.362,141.93 429.33,141.559C429.297,141.243 429.269,140.888 429.245,140.492C429.229,140.096 429.22,139.696 429.22,139.292L429.22,129.366L432.399,129.366L432.399,146.443L428.202,146.443Z" fill="#FFFFFF"/>
<path d="M463.504,146.443L456.056,133.293C456.096,133.649 456.134,134.004 456.166,134.36C456.198,134.667 456.222,134.998 456.238,135.353C456.262,135.709 456.274,136.048 456.274,136.371L456.274,146.443L453.096,146.443L453.096,129.366L457.184,129.366L464.742,142.625C464.702,142.286 464.666,141.93 464.634,141.559C464.6,141.243 464.572,140.888 464.548,140.492C464.532,140.096 464.524,139.696 464.524,139.292L464.524,129.366L467.702,129.366L467.702,146.443L463.504,146.443Z" fill="#FFFFFF"/>
<path d="M476.268,146.443L476.268,129.366L489.708,129.366L489.708,132.13L479.846,132.13L479.846,136.42L488.968,136.42L488.968,139.183L479.846,139.183L479.846,143.679L490.206,143.679L490.206,146.443L476.268,146.443Z" fill="#FFFFFF"/>
<path d="M515.404,146.443L511.158,146.443L508.84,136.565C508.768,136.266 508.686,135.911 508.598,135.499C508.516,135.087 508.44,134.687 508.368,134.299C508.278,133.855 508.198,133.394 508.124,132.917C508.036,133.394 507.946,133.859 507.858,134.311C507.818,134.505 507.776,134.707 507.736,134.917C507.696,135.119 507.652,135.321 507.602,135.523C507.562,135.717 507.522,135.903 507.482,136.081C507.45,136.258 507.412,136.42 507.372,136.565L505.068,146.443L500.822,146.443L496.418,129.366L500.046,129.366L502.18,138.868C502.302,139.385 502.414,139.894 502.52,140.395C502.626,140.896 502.722,141.344 502.812,141.74C502.908,142.201 502.998,142.641 503.078,143.061C503.2,142.463 503.316,141.882 503.43,141.316C503.478,141.074 503.53,140.823 503.588,140.565C503.644,140.306 503.696,140.052 503.746,139.801C503.802,139.551 503.854,139.312 503.904,139.086C503.96,138.852 504.008,138.642 504.048,138.456L506.16,129.366L510.162,129.366L512.322,138.456C512.37,138.65 512.418,138.868 512.468,139.11C512.516,139.345 512.564,139.591 512.614,139.85C512.662,140.1 512.71,140.355 512.758,140.613C512.808,140.864 512.852,141.11 512.892,141.353C512.99,141.918 513.086,142.488 513.184,143.061C513.28,142.609 513.382,142.14 513.486,141.656C513.576,141.243 513.676,140.791 513.79,140.298C513.902,139.805 514.016,139.329 514.13,138.868L516.192,129.366L519.818,129.366L515.404,146.443Z" fill="#FFFFFF"/>
<path d="M540.674,141.522C540.674,142.298 540.532,143.005 540.248,143.643C539.966,144.273 539.524,144.815 538.926,145.267C538.336,145.72 537.576,146.071 536.646,146.322C535.724,146.564 534.624,146.685 533.346,146.685C532.214,146.685 531.214,146.584 530.35,146.382C529.484,146.18 528.74,145.881 528.118,145.485C527.502,145.089 527.002,144.601 526.614,144.019C526.234,143.429 525.958,142.754 525.788,141.995L529.246,141.425C529.342,141.805 529.484,142.152 529.67,142.468C529.856,142.783 530.112,143.057 530.434,143.292C530.766,143.518 531.174,143.696 531.66,143.825C532.154,143.946 532.748,144.007 533.442,144.007C534.656,144.007 535.582,143.825 536.22,143.461C536.868,143.09 537.192,142.512 537.192,141.728C537.192,141.26 537.062,140.876 536.804,140.577C536.544,140.278 536.2,140.031 535.772,139.838C535.344,139.644 534.85,139.482 534.292,139.353C533.734,139.224 533.152,139.098 532.546,138.977C532.06,138.864 531.574,138.747 531.09,138.626C530.604,138.504 530.14,138.359 529.694,138.189C529.258,138.02 528.85,137.818 528.47,137.583C528.09,137.349 527.758,137.062 527.474,136.723C527.2,136.375 526.982,135.971 526.82,135.511C526.666,135.05 526.588,134.509 526.588,133.887C526.588,133.039 526.758,132.311 527.098,131.705C527.438,131.099 527.908,130.607 528.506,130.227C529.112,129.839 529.832,129.556 530.664,129.378C531.498,129.201 532.408,129.112 533.394,129.112C534.51,129.112 535.464,129.201 536.258,129.378C537.058,129.548 537.726,129.811 538.258,130.166C538.8,130.522 539.226,130.97 539.532,131.511C539.848,132.045 540.078,132.671 540.224,133.39L536.754,133.863C536.576,133.127 536.212,132.574 535.662,132.202C535.122,131.831 534.34,131.645 533.322,131.645C532.69,131.645 532.166,131.701 531.744,131.814C531.332,131.919 531,132.065 530.75,132.251C530.508,132.437 530.334,132.655 530.228,132.905C530.124,133.148 530.07,133.406 530.07,133.681C530.07,134.101 530.172,134.448 530.374,134.723C530.576,134.99 530.86,135.216 531.224,135.402C531.586,135.58 532.02,135.733 532.522,135.862C533.03,135.984 533.588,136.109 534.196,136.238C534.728,136.351 535.258,136.472 535.784,136.602C536.31,136.723 536.812,136.868 537.288,137.038C537.766,137.208 538.21,137.414 538.622,137.656C539.036,137.898 539.392,138.197 539.69,138.553C539.998,138.9 540.236,139.316 540.406,139.801C540.584,140.286 540.674,140.86 540.674,141.522Z" fill="#FFFFFF"/>
<path d="M571.816,146.443L570.298,142.08L563.784,142.08L562.268,146.443L558.69,146.443L564.924,129.366L569.146,129.366L575.358,146.443L571.816,146.443ZM567.812,134.481C567.716,134.198 567.618,133.915 567.52,133.632C567.432,133.342 567.352,133.079 567.278,132.845C567.214,132.602 567.156,132.404 567.108,132.251C567.068,132.097 567.044,132.012 567.036,131.996C567.028,132.02 567.004,132.109 566.962,132.263C566.922,132.416 566.866,132.61 566.794,132.845C566.728,133.079 566.648,133.342 566.55,133.632C566.462,133.915 566.368,134.198 566.272,134.481L564.586,139.389L569.498,139.389L567.812,134.481Z" fill="#FFFFFF"/>
<path d="M591.02,143.886C591.538,143.886 592.034,143.845 592.512,143.764C592.988,143.684 593.43,143.578 593.834,143.449C594.246,143.312 594.614,143.158 594.938,142.989C595.27,142.811 595.54,142.629 595.75,142.443L595.75,140.08L591.578,140.08L591.578,137.438L599.026,137.438L599.026,143.716C598.638,144.112 598.168,144.491 597.618,144.855C597.068,145.211 596.45,145.526 595.762,145.8C595.076,146.067 594.324,146.281 593.506,146.443C592.698,146.604 591.836,146.685 590.922,146.685C589.41,146.685 588.108,146.467 587.016,146.031C585.924,145.586 585.026,144.972 584.324,144.188C583.62,143.397 583.098,142.459 582.758,141.377C582.426,140.294 582.262,139.11 582.262,137.826C582.262,136.493 582.438,135.289 582.794,134.214C583.15,133.14 583.688,132.227 584.408,131.475C585.136,130.716 586.046,130.134 587.138,129.73C588.238,129.318 589.528,129.112 591.008,129.112C592.084,129.112 593.038,129.217 593.87,129.427C594.712,129.637 595.444,129.936 596.066,130.324C596.696,130.712 597.222,131.18 597.644,131.73C598.072,132.271 598.412,132.881 598.662,133.56L595.362,134.553C595.216,134.198 595.022,133.863 594.78,133.548C594.538,133.224 594.234,132.946 593.87,132.711C593.514,132.469 593.098,132.279 592.62,132.142C592.152,131.996 591.614,131.924 591.008,131.924C590.118,131.924 589.35,132.065 588.702,132.348C588.056,132.622 587.522,133.018 587.102,133.535C586.68,134.053 586.37,134.675 586.168,135.402C585.966,136.121 585.864,136.929 585.864,137.826C585.864,138.715 585.966,139.531 586.168,140.274C586.378,141.017 586.692,141.656 587.114,142.189C587.542,142.722 588.08,143.138 588.726,143.437C589.374,143.736 590.138,143.886 591.02,143.886Z" fill="#FFFFFF"/>
<path d="M607.458,146.443L607.458,129.366L620.9,129.366L620.9,132.13L611.036,132.13L611.036,136.42L620.16,136.42L620.16,139.183L611.036,139.183L611.036,143.679L621.396,143.679L621.396,146.443L607.458,146.443Z" fill="#FFFFFF"/>
<path d="M639.654,146.443L632.206,133.293C632.246,133.649 632.284,134.004 632.316,134.36C632.348,134.667 632.372,134.998 632.388,135.353C632.412,135.709 632.424,136.048 632.424,136.371L632.424,146.443L629.246,146.443L629.246,129.366L633.334,129.366L640.892,142.625C640.852,142.286 640.816,141.93 640.782,141.559C640.75,141.243 640.722,140.888 640.698,140.492C640.682,140.096 640.674,139.696 640.674,139.292L640.674,129.366L643.852,129.366L643.852,146.443L639.654,146.443Z" fill="#FFFFFF"/>
<path d="M660.4,143.873C661.07,143.873 661.65,143.78 662.134,143.595C662.628,143.401 663.052,143.15 663.408,142.843C663.772,142.536 664.072,142.189 664.306,141.801C664.548,141.413 664.746,141.021 664.9,140.625L668.018,141.801C667.768,142.415 667.44,143.017 667.036,143.607C666.632,144.197 666.126,144.718 665.52,145.17C664.912,145.623 664.188,145.99 663.348,146.273C662.514,146.548 661.532,146.685 660.4,146.685C658.92,146.685 657.638,146.467 656.554,146.031C655.47,145.586 654.572,144.972 653.862,144.188C653.158,143.397 652.632,142.459 652.284,141.377C651.944,140.294 651.774,139.11 651.774,137.826C651.774,136.493 651.944,135.289 652.284,134.214C652.632,133.14 653.154,132.227 653.85,131.475C654.544,130.716 655.422,130.134 656.482,129.73C657.548,129.318 658.802,129.112 660.242,129.112C661.358,129.112 662.332,129.229 663.166,129.463C664.006,129.698 664.73,130.029 665.338,130.457C665.952,130.877 666.458,131.378 666.854,131.96C667.258,132.534 667.574,133.168 667.8,133.863L664.646,134.723C664.532,134.36 664.358,134.012 664.124,133.681C663.89,133.342 663.59,133.043 663.226,132.784C662.87,132.525 662.45,132.319 661.964,132.166C661.48,132.004 660.93,131.924 660.314,131.924C659.45,131.924 658.706,132.065 658.082,132.348C657.46,132.622 656.946,133.018 656.542,133.535C656.146,134.053 655.85,134.675 655.656,135.402C655.47,136.121 655.378,136.929 655.378,137.826C655.378,138.715 655.47,139.531 655.656,140.274C655.85,141.009 656.15,141.643 656.554,142.177C656.958,142.71 657.476,143.126 658.106,143.425C658.746,143.724 659.51,143.873 660.4,143.873Z" fill="#FFFFFF"/>
<path d="M684.008,139.438L684.008,146.443L680.442,146.443L680.442,139.438L674.352,129.366L678.1,129.366L682.2,136.59L686.348,129.366L690.098,129.366L684.008,139.438Z" fill="#FFFFFF"/>
</svg>
