<svg width="546" height="128" viewBox="0 0 546 128" fill="none" xmlns="http://www.w3.org/2000/svg" xmlns:xlink="http://www.w3.org/1999/xlink">
<path d="M85.642,94.136C83.922,95.575 82.202,97.028 80.467,98.467C80.764,98.842 81.077,99.217 81.374,99.592C83.14,98.467 84.813,97.138 86.705,96.309C87.924,95.778 89.722,95.496 90.847,96.012C100.492,100.389 110.074,104.907 119.594,109.55C120.579,110.034 121.595,111.535 121.642,112.614C121.861,117.475 121.736,122.352 121.736,127.589C120.657,127.198 119.782,126.98 118.985,126.604C81.937,108.924 44.873,91.229 7.809,73.565C3.995,71.751 0.791,69.438 0.134,64.904C-0.616,59.715 1.775,55.963 7.528,53.243C21.097,46.834 34.665,40.472 48.234,34.078C71.494,23.136 94.755,12.177 118.031,1.251C119.079,0.75 120.188,0.344 121.548,-0.219C121.548,5.721 121.548,11.349 121.548,17.164C116.437,19.509 111.263,21.869 105.76,24.402C114.045,52.024 106.073,74.94 85.579,94.168C86.314,92.917 87.002,91.682 87.752,90.463C94.364,79.817 98.1,68.344 97.491,55.697C97.084,47.225 94.943,39.174 91.081,31.217C68.149,41.957 45.514,52.571 22.16,63.513C24.067,64.514 25.161,65.155 26.302,65.686C45.248,74.596 64.194,83.475 83.14,92.401C84.063,92.839 84.813,93.558 85.642,94.136Z" fill="#AA0A2F"/>
<path d="M421.778,87.18C418.761,87.18 416.26,87.18 413.478,87.18C413.478,68.812 413.478,50.46 413.478,31.764C414.525,31.718 415.666,31.608 416.807,31.608C429.688,31.592 442.585,31.577 455.466,31.608C465.173,31.624 471.942,38.814 471.817,48.913C471.692,59.199 465.361,65.639 455.466,65.561C453.34,65.545 451.198,65.561 448.431,65.561C453.246,78.285 463.36,83.694 475.49,87.071C458.623,92.198 436.504,75.097 437.145,57.51C442.835,57.51 448.556,57.667 454.246,57.464C459.28,57.276 462.547,53.806 462.656,49.054C462.766,44.239 459.764,40.737 454.856,39.971C454.387,39.893 453.902,39.815 453.433,39.815C443.413,39.815 433.393,39.799 423.373,39.831C422.92,39.831 422.466,40.034 421.763,40.206C421.778,55.775 421.778,71.298 421.778,87.18Z" fill="#000000"/>
<path d="M232.145,87.68C229.066,87.68 226.596,87.68 223.813,87.68C223.813,69.234 223.813,50.914 223.813,32.124C226.971,32.124 230.176,31.874 233.302,32.249C234.584,32.405 235.881,33.75 236.851,34.844C248.559,48.147 260.221,61.512 271.898,74.846C272.492,75.534 273.148,76.175 274.414,77.504C274.414,61.966 274.414,47.225 274.414,32.265C277.369,32.265 279.823,32.265 282.559,32.265C282.559,50.664 282.559,68.984 282.559,87.79C279.417,87.79 276.337,88.009 273.32,87.68C272.148,87.555 270.929,86.289 270.053,85.289C258.423,72.064 246.855,58.792 235.272,45.536C234.459,44.598 233.584,43.707 232.161,42.16C232.145,57.776 232.145,72.564 232.145,87.68Z" fill="#000000"/>
<path d="M545.71,87.587C536.846,88.29 536.846,88.29 533.016,81.021C526.216,68.109 519.401,55.197 512.272,41.706C511.397,43.223 510.741,44.254 510.162,45.333C503.456,57.901 496.609,70.407 490.184,83.116C488.308,86.836 486.136,88.603 482.009,87.837C481.086,87.665 480.117,87.805 478.523,87.805C479.132,86.461 479.523,85.429 480.039,84.476C488.84,68.172 497.672,51.899 506.457,35.579C507.786,33.124 509.381,31.123 512.382,31.155C515.383,31.186 516.946,33.203 518.26,35.657C526.92,52.024 535.658,68.359 544.365,84.71C544.787,85.539 545.147,86.399 545.71,87.587Z" fill="#000000"/>
<path d="M339.132,87.806C343.79,79.208 348.058,71.283 352.341,63.373C357.374,54.072 362.251,44.708 367.535,35.563C368.629,33.672 370.99,31.859 373.084,31.358C375.898,30.686 377.68,33.015 379.009,35.516C387.732,51.993 396.548,68.406 405.302,84.851C405.724,85.648 406.021,86.524 406.568,87.806C403.692,87.806 401.191,88.087 398.799,87.681C397.736,87.493 396.642,86.071 396.032,84.961C389.029,71.877 382.135,58.746 375.195,45.63C374.601,44.505 373.929,43.426 373.053,41.879C372.193,43.379 371.537,44.427 370.943,45.537C364.299,57.995 357.468,70.376 351.153,83.007C349.183,86.93 346.901,88.603 342.68,87.868C341.789,87.681 340.835,87.806 339.132,87.806Z" fill="#000000"/>
<path d="M214.95,87.368C208.572,89.056 205.102,87.118 202.366,81.303C196.598,69.063 189.876,57.276 183.545,45.318C182.998,44.286 182.404,43.27 181.591,41.769C180.747,43.27 180.106,44.349 179.512,45.458C172.806,58.042 165.959,70.548 159.535,83.257C157.706,86.883 155.564,88.525 151.609,87.837C150.593,87.665 149.546,87.712 147.951,87.618C148.67,86.133 149.186,85.008 149.764,83.913C158.409,67.922 167.069,51.946 175.667,35.938C177.027,33.406 178.543,31.171 181.748,31.186C184.937,31.218 186.437,33.453 187.782,36.001C196.348,52.165 204.977,68.297 213.575,84.445C214.075,85.351 214.466,86.305 214.95,87.368Z" fill="#000000"/>
<path d="M316.856,87.587C316.856,71.845 316.856,56.244 316.856,40.331C308.289,40.331 300.223,40.331 291.907,40.331C291.907,37.579 291.907,35.156 291.907,32.452C311.337,32.452 330.706,32.452 350.371,32.452C350.371,34.844 350.371,37.251 350.371,40.096C342.289,40.096 334.145,40.096 325.5,40.096C325.5,56.135 325.5,71.751 325.5,87.587C322.483,87.587 319.92,87.587 316.856,87.587Z" fill="#000000"/>
</svg>
