<svg width="124" height="52" viewBox="0 0 124 52" fill="none" xmlns="http://www.w3.org/2000/svg" xmlns:xlink="http://www.w3.org/1999/xlink">
<path d="M57.297,14.677C57.297,18.936 54.818,22.367 49.86,24.969C44.902,27.572 37.465,28.873 27.548,28.873L9.775,28.873L9.775,50.025L0.951,50.025L0.951,0.41L27.548,0.41C37.38,0.41 44.776,1.712 49.734,4.314C54.776,6.917 57.297,10.371 57.297,14.677ZM27.548,24.614C41.33,24.614 48.221,21.302 48.221,14.677C48.221,11.365 46.582,8.857 43.305,7.153C40.028,5.45 34.775,4.598 27.548,4.598L9.775,4.598L9.775,24.614L27.548,24.614Z" fill="#909090"/>
<path d="M111.644,50.025L89.836,29.299L73.576,29.299L73.576,50.025L64.752,50.025L64.752,0.41L91.223,0.41C101.055,0.41 108.492,1.735 113.534,4.385C118.661,7.035 121.224,10.513 121.224,14.819C121.224,18.415 119.375,21.491 115.677,24.046C112.064,26.554 106.686,28.187 99.543,28.944L122.232,50.025L111.644,50.025ZM73.576,25.253L91.349,25.253C98.24,25.253 103.408,24.307 106.854,22.414C110.383,20.521 112.148,17.99 112.148,14.819C112.148,11.554 110.467,9.046 107.106,7.295C103.744,5.497 98.45,4.598 91.223,4.598L73.576,4.598L73.576,25.253Z" fill="#909090"/>
</svg>
