<svg width="120" height="58" viewBox="0 0 120 58" fill="none" xmlns="http://www.w3.org/2000/svg" xmlns:xlink="http://www.w3.org/1999/xlink">
<path d="M1.474,4.529C0.191,4.529 -0.849,3.488 -0.849,2.205L-0.849,2.205C-0.849,0.922 0.191,-0.118 1.474,-0.118L49.563,-0.118C50.847,-0.118 51.887,0.922 51.887,2.205L51.887,2.205C51.887,3.488 50.847,4.529 49.563,4.529L32.839,4.529C30.63,4.529 28.839,6.32 28.839,8.529L28.839,53.209C28.839,55.043 27.353,56.53 25.519,56.53L25.519,56.53C23.685,56.53 22.198,55.043 22.198,53.209L22.198,8.529C22.198,6.32 20.408,4.529 18.199,4.529L1.474,4.529Z" fill="#909090" stroke="#909090" stroke-width="0.4" stroke-miterlimit="3.999327"/>
<path d="M64.921,-0.118C66.153,-0.118 67.272,0.602 67.782,1.723L89.54,49.518C89.62,49.695 89.797,49.808 89.992,49.808L89.992,49.808C90.187,49.808 90.363,49.695 90.444,49.518L112.201,1.723C112.712,0.602 113.83,-0.118 115.062,-0.118L115.062,-0.118C117.363,-0.118 118.884,2.271 117.911,4.356L94.621,54.222C93.963,55.63 92.55,56.53 90.997,56.53L88.987,56.53C87.434,56.53 86.02,55.63 85.363,54.222L62.073,4.356C61.1,2.271 62.621,-0.118 64.921,-0.118L64.921,-0.118Z" fill="#909090" stroke="#909090" stroke-width="0.4" stroke-miterlimit="3.999327"/>
</svg>
