<svg width="84" height="98" viewBox="0 0 84 98" fill="none" xmlns="http://www.w3.org/2000/svg" xmlns:xlink="http://www.w3.org/1999/xlink">
<path d="M80.018,85.537C67.704,93.962 58.55,97.445 47.532,97.445C38.945,97.445 30.925,95.258 23.553,90.965C8.728,82.215 -0.832,66.175 -0.832,49.081C-0.832,40.494 1.356,32.474 5.811,24.778C14.56,9.791 29.953,0.798 47.532,0.798C59.765,0.798 71.35,5.335 80.261,13.274L82.205,15.218L78.722,18.864L77.588,17.73L76.778,17.001C68.838,9.629 58.469,5.659 47.532,5.659C39.755,5.659 32.545,7.603 25.902,11.492C12.454,19.269 4.11,33.527 4.11,49.081C4.11,56.859 6.054,64.069 9.943,70.712C17.72,83.998 31.978,92.342 47.532,92.342C56.93,92.342 64.869,89.587 74.995,82.944L67.218,71.441C59.279,76.463 54.013,78.408 47.532,78.408C42.51,78.408 37.811,77.03 33.274,74.357C24.282,68.929 18.449,58.965 18.449,49.162C18.449,44.059 19.826,39.198 22.5,34.58C27.927,25.264 36.92,19.998 47.613,19.998C53.689,19.998 59.36,21.78 64.545,25.264C64.788,25.507 65.112,25.669 65.517,25.831L68.595,22.348L67.461,21.375C60.98,17.082 54.418,14.975 47.613,14.975C38.621,14.975 30.034,18.459 23.472,25.102C16.991,31.583 13.507,40.089 13.507,49.081C13.507,58.074 16.991,66.661 23.472,73.223C29.953,79.704 38.621,83.349 47.613,83.349C54.094,83.349 60.089,81.567 65.76,77.841L68.514,81.972C62.033,86.104 55.066,88.21 47.613,88.21C37.244,88.21 27.36,84.079 19.988,76.706C12.616,69.334 8.485,59.532 8.485,49.081C8.485,38.712 12.616,29.153 19.988,21.375C27.603,14.003 37.163,10.034 47.613,10.034C56.038,10.034 63.735,12.545 70.216,17.487C71.998,18.621 73.294,19.593 73.942,20.241L75.481,21.78L66.165,32.717L64.059,31.178C63.33,30.449 62.519,29.801 61.547,29.234C57.497,26.317 52.798,24.778 47.532,24.778C43.239,24.778 39.35,25.912 35.624,27.937C28.17,32.231 23.391,40.008 23.391,49C23.391,53.132 24.525,57.021 26.874,60.747C31.33,68.2 39.188,73.061 47.532,73.061C53.527,73.061 57.821,71.36 66.489,65.689L68.676,64.312L81.881,84.16L80.018,85.537Z" fill="#800000"/>
</svg>
