<svg width="38" height="64" viewBox="0 0 38 64" fill="none" xmlns="http://www.w3.org/2000/svg" xmlns:xlink="http://www.w3.org/1999/xlink">
<path d="M10.243,1.757C7.899,-0.586 4.101,-0.586 1.757,1.757C-0.586,4.101 -0.586,7.899 1.757,10.243L10.243,1.757ZM32,32L36.243,36.243C38.586,33.899 38.586,30.101 36.243,27.757L32,32ZM1.757,53.757C-0.586,56.101 -0.586,59.899 1.757,62.243C4.101,64.586 7.899,64.586 10.243,62.243L1.757,53.757ZM1.757,10.243L27.757,36.243L36.243,27.757L10.243,1.757L1.757,10.243ZM27.757,27.757L1.757,53.757L10.243,62.243L36.243,36.243L27.757,27.757Z" fill="#000000"/>
</svg>
