<svg width="22" height="14" viewBox="0 0 22 14" fill="none" xmlns="http://www.w3.org/2000/svg" xmlns:xlink="http://www.w3.org/1999/xlink">
<path d="M3.487,0.662C2.748,-0.159 1.483,-0.225 0.662,0.513C-0.159,1.252 -0.226,2.517 0.513,3.338L3.487,0.662ZM11,12L9.513,13.338C9.893,13.759 10.433,14 11,14C11.567,14 12.107,13.759 12.487,13.338L11,12ZM21.487,3.338C22.226,2.517 22.159,1.252 21.338,0.513C20.517,-0.225 19.252,-0.159 18.513,0.662L21.487,3.338ZM0.513,3.338L9.513,13.338L12.487,10.662L3.487,0.662L0.513,3.338ZM12.487,13.338L21.487,3.338L18.513,0.662L9.513,10.662L12.487,13.338Z" fill="#2B2B2B"/>
</svg>
