<svg width="578" height="136" viewBox="0 0 578 136" fill="none" xmlns="http://www.w3.org/2000/svg" xmlns:xlink="http://www.w3.org/1999/xlink">
<path d="M90.709,99.938C88.888,101.462 87.067,103.001 85.229,104.525C85.543,104.922 85.874,105.319 86.189,105.717C88.06,104.525 89.832,103.117 91.835,102.24C93.126,101.677 95.03,101.379 96.223,101.925C106.438,106.561 116.588,111.346 126.671,116.264C127.714,116.777 128.79,118.366 128.84,119.509C129.072,124.658 128.939,129.824 128.939,135.371C127.797,134.957 126.87,134.725 126.025,134.327C86.785,115.601 47.528,96.859 8.271,78.149C4.232,76.229 0.837,73.778 0.142,68.977C-0.653,63.48 1.88,59.506 7.973,56.625C22.345,49.837 36.716,43.098 51.088,36.326C75.725,24.736 100.362,13.13 125.015,1.556C126.125,1.027 127.3,0.596 128.741,0C128.741,6.292 128.741,12.252 128.741,18.411C123.326,20.895 117.846,23.395 112.018,26.077C120.793,55.334 112.349,79.606 90.643,99.972C91.421,98.647 92.15,97.339 92.944,96.048C99.948,84.772 103.905,72.619 103.259,59.225C102.829,50.251 100.561,41.724 96.471,33.296C72.182,44.671 48.207,55.913 23.471,67.503C25.491,68.563 26.65,69.242 27.858,69.805C47.926,79.242 67.993,88.647 88.06,98.101C89.037,98.564 89.832,99.326 90.709,99.938Z" fill="#AA0A2F"/>
<path d="M446.736,92.571C443.54,92.571 440.89,92.571 437.944,92.571C437.944,73.116 437.944,53.678 437.944,33.876C439.054,33.826 440.262,33.71 441.47,33.71C455.114,33.694 468.774,33.677 482.416,33.71C492.698,33.727 499.868,41.343 499.734,52.039C499.602,62.933 492.896,69.755 482.416,69.672C480.164,69.656 477.896,69.672 474.966,69.672C480.064,83.15 490.778,88.878 503.626,92.455C485.76,97.885 462.332,79.772 463.012,61.145C469.038,61.145 475.098,61.311 481.124,61.096C486.456,60.897 489.916,57.221 490.032,52.188C490.148,47.088 486.97,43.379 481.77,42.568C481.274,42.485 480.76,42.403 480.264,42.403C469.65,42.403 459.038,42.386 448.424,42.419C447.944,42.419 447.464,42.634 446.72,42.817C446.736,59.307 446.736,75.749 446.736,92.571Z" fill="#231F20"/>
<path d="M245.882,93.1C242.62,93.1 240.004,93.1 237.056,93.1C237.056,73.563 237.056,54.158 237.056,34.257C240.402,34.257 243.796,33.992 247.108,34.389C248.464,34.555 249.84,35.978 250.866,37.137C263.266,51.228 275.618,65.384 287.986,79.507C288.616,80.236 289.312,80.914 290.652,82.322C290.652,65.864 290.652,50.251 290.652,34.406C293.782,34.406 296.38,34.406 299.278,34.406C299.278,53.893 299.278,73.298 299.278,93.216C295.95,93.216 292.688,93.448 289.494,93.1C288.252,92.968 286.96,91.627 286.032,90.567C273.714,76.56 261.462,62.503 249.194,48.463C248.332,47.469 247.406,46.525 245.898,44.886C245.882,61.427 245.882,77.09 245.882,93.1Z" fill="#231F20"/>
<path d="M578,93.001C568.612,93.746 568.612,93.746 564.556,86.047C557.354,72.371 550.134,58.695 542.584,44.406C541.658,46.012 540.962,47.105 540.35,48.247C533.246,61.559 525.994,74.805 519.19,88.266C517.202,92.206 514.902,94.077 510.53,93.266C509.554,93.084 508.526,93.233 506.838,93.233C507.484,91.809 507.898,90.716 508.444,89.706C517.766,72.437 527.12,55.201 536.426,37.916C537.832,35.316 539.522,33.197 542.7,33.23C545.88,33.263 547.536,35.399 548.926,37.998C558.098,55.334 567.354,72.636 576.576,89.954C577.024,90.832 577.404,91.743 578,93.001Z" fill="#231F20"/>
<path d="M359.198,93.233C364.132,84.126 368.652,75.732 373.19,67.354C378.52,57.503 383.686,47.585 389.282,37.899C390.442,35.896 392.942,33.975 395.16,33.445C398.14,32.733 400.028,35.2 401.436,37.849C410.674,55.301 420.012,72.685 429.284,90.104C429.732,90.948 430.046,91.875 430.626,93.233C427.58,93.233 424.93,93.531 422.396,93.1C421.27,92.902 420.112,91.395 419.466,90.219C412.048,76.361 404.746,62.453 397.396,48.562C396.766,47.37 396.054,46.227 395.128,44.588C394.216,46.178 393.522,47.287 392.892,48.463C385.856,61.658 378.62,74.772 371.93,88.15C369.844,92.306 367.428,94.077 362.956,93.299C362.014,93.1 361.004,93.233 359.198,93.233Z" fill="#231F20"/>
<path d="M227.67,92.769C220.914,94.557 217.238,92.504 214.34,86.345C208.232,73.381 201.112,60.897 194.406,48.231C193.826,47.138 193.197,46.062 192.336,44.472C191.442,46.062 190.763,47.204 190.134,48.38C183.031,61.708 175.779,74.954 168.974,88.415C167.037,92.256 164.769,93.994 160.58,93.266C159.504,93.084 158.394,93.133 156.706,93.034C157.467,91.461 158.014,90.269 158.626,89.11C167.782,72.172 176.955,55.251 186.061,38.296C187.502,35.614 189.108,33.247 192.502,33.263C195.88,33.296 197.469,35.664 198.893,38.363C207.966,55.483 217.106,72.57 226.212,89.673C226.742,90.633 227.156,91.643 227.67,92.769Z" fill="#231F20"/>
<path d="M335.604,93.001C335.604,76.328 335.604,59.804 335.604,42.949C326.532,42.949 317.988,42.949 309.18,42.949C309.18,40.035 309.18,37.469 309.18,34.604C329.76,34.604 350.274,34.604 371.102,34.604C371.102,37.137 371.102,39.687 371.102,42.701C362.542,42.701 353.916,42.701 344.76,42.701C344.76,59.688 344.76,76.229 344.76,93.001C341.566,93.001 338.85,93.001 335.604,93.001Z" fill="#231F20"/>
<path d="M187.338,118L187.338,104.24L190.219,104.24L190.219,118L187.338,118Z" fill="#8A8C8F"/>
<path d="M205.484,118L199.487,107.404C199.52,107.691 199.549,107.977 199.575,108.264C199.601,108.511 199.621,108.778 199.634,109.064C199.653,109.351 199.663,109.624 199.663,109.885L199.663,118L197.104,118L197.104,104.24L200.396,104.24L206.48,114.924C206.446,114.65 206.418,114.364 206.392,114.064C206.366,113.811 206.342,113.524 206.324,113.205C206.31,112.886 206.304,112.564 206.304,112.238L206.304,104.24L208.862,104.24L208.862,118L205.484,118Z" fill="#8A8C8F"/>
<path d="M228.024,111.018C228.024,112.163 227.85,113.173 227.506,114.045C227.16,114.911 226.688,115.637 226.09,116.223C225.49,116.809 224.78,117.251 223.96,117.551C223.146,117.85 222.268,118 221.324,118L215.758,118L215.758,104.24L220.738,104.24C221.806,104.24 222.786,104.374 223.678,104.641C224.57,104.908 225.338,105.318 225.982,105.871C226.626,106.424 227.128,107.128 227.486,107.98C227.844,108.833 228.024,109.846 228.024,111.018ZM225.122,111.018C225.122,110.217 225.012,109.53 224.79,108.957C224.576,108.384 224.274,107.915 223.882,107.551C223.492,107.18 223.024,106.906 222.476,106.73C221.936,106.555 221.336,106.467 220.68,106.467L218.638,106.467L218.638,115.773L221.08,115.773C221.66,115.773 222.192,115.673 222.682,115.471C223.176,115.269 223.602,114.969 223.96,114.572C224.326,114.169 224.608,113.671 224.81,113.078C225.018,112.486 225.122,111.799 225.122,111.018Z" fill="#8A8C8F"/>
<path d="M247.79,111.057C247.79,112.131 247.63,113.107 247.31,113.986C246.992,114.865 246.532,115.617 245.934,116.242C245.336,116.867 244.602,117.349 243.736,117.688C242.878,118.026 241.904,118.195 240.816,118.195C239.664,118.195 238.656,118.02 237.79,117.668C236.93,117.31 236.21,116.815 235.632,116.184C235.052,115.546 234.616,114.79 234.322,113.918C234.036,113.046 233.892,112.092 233.892,111.057C233.892,109.982 234.042,109.012 234.342,108.146C234.648,107.281 235.094,106.545 235.68,105.939C236.272,105.327 236.998,104.859 237.858,104.533C238.724,104.201 239.716,104.035 240.836,104.035C241.956,104.035 242.946,104.201 243.806,104.533C244.67,104.865 245.396,105.337 245.982,105.949C246.576,106.561 247.024,107.3 247.33,108.166C247.636,109.025 247.79,109.989 247.79,111.057ZM244.85,111.057C244.85,110.334 244.762,109.683 244.586,109.104C244.418,108.518 244.164,108.016 243.824,107.6C243.486,107.183 243.066,106.864 242.564,106.643C242.07,106.415 241.494,106.301 240.836,106.301C240.166,106.301 239.576,106.415 239.068,106.643C238.568,106.864 238.148,107.183 237.808,107.6C237.47,108.016 237.216,108.518 237.048,109.104C236.878,109.683 236.794,110.334 236.794,111.057C236.794,111.773 236.878,112.43 237.048,113.029C237.224,113.622 237.48,114.133 237.818,114.562C238.158,114.992 238.578,115.327 239.078,115.568C239.58,115.809 240.16,115.93 240.816,115.93C241.52,115.93 242.126,115.809 242.634,115.568C243.142,115.321 243.558,114.982 243.884,114.553C244.216,114.117 244.46,113.602 244.616,113.01C244.772,112.411 244.85,111.76 244.85,111.057Z" fill="#8A8C8F"/>
<path d="M262.556,118L256.56,107.404C256.592,107.691 256.622,107.977 256.648,108.264C256.674,108.511 256.694,108.778 256.706,109.064C256.726,109.351 256.736,109.624 256.736,109.885L256.736,118L254.176,118L254.176,104.24L257.468,104.24L263.552,114.924C263.52,114.65 263.49,114.364 263.464,114.064C263.438,113.811 263.416,113.524 263.396,113.205C263.382,112.886 263.376,112.564 263.376,112.238L263.376,104.24L265.934,104.24L265.934,118L262.556,118Z" fill="#8A8C8F"/>
<path d="M272.83,118L272.83,104.24L283.65,104.24L283.65,106.467L275.71,106.467L275.71,109.924L283.054,109.924L283.054,112.15L275.71,112.15L275.71,115.773L284.05,115.773L284.05,118L272.83,118Z" fill="#8A8C8F"/>
<path d="M301.59,114.035C301.59,114.66 301.476,115.23 301.248,115.744C301.02,116.252 300.666,116.688 300.184,117.053C299.71,117.417 299.098,117.701 298.348,117.902C297.606,118.098 296.72,118.195 295.692,118.195C294.78,118.195 293.976,118.114 293.28,117.951C292.584,117.788 291.984,117.548 291.484,117.229C290.988,116.91 290.584,116.516 290.272,116.047C289.966,115.572 289.744,115.028 289.608,114.416L292.392,113.957C292.47,114.263 292.584,114.543 292.734,114.797C292.882,115.051 293.088,115.272 293.348,115.461C293.616,115.643 293.944,115.786 294.334,115.891C294.732,115.988 295.21,116.037 295.77,116.037C296.746,116.037 297.492,115.891 298.006,115.598C298.528,115.298 298.788,114.833 298.788,114.201C298.788,113.824 298.684,113.514 298.476,113.273C298.268,113.033 297.99,112.834 297.646,112.678C297.3,112.521 296.904,112.391 296.454,112.287C296.004,112.183 295.536,112.082 295.048,111.984C294.658,111.893 294.266,111.799 293.876,111.701C293.486,111.604 293.11,111.486 292.752,111.35C292.402,111.213 292.072,111.05 291.766,110.861C291.46,110.673 291.194,110.441 290.966,110.168C290.744,109.888 290.568,109.562 290.438,109.191C290.314,108.82 290.252,108.384 290.252,107.883C290.252,107.199 290.39,106.613 290.662,106.125C290.936,105.637 291.314,105.24 291.796,104.934C292.284,104.621 292.864,104.393 293.534,104.25C294.204,104.107 294.936,104.035 295.732,104.035C296.63,104.035 297.398,104.107 298.036,104.25C298.68,104.387 299.218,104.598 299.648,104.885C300.084,105.171 300.426,105.533 300.672,105.969C300.926,106.398 301.112,106.903 301.23,107.482L298.436,107.863C298.294,107.271 298,106.825 297.558,106.525C297.122,106.226 296.492,106.076 295.672,106.076C295.164,106.076 294.742,106.122 294.404,106.213C294.072,106.298 293.804,106.415 293.602,106.564C293.408,106.714 293.268,106.89 293.182,107.092C293.098,107.287 293.056,107.495 293.056,107.717C293.056,108.055 293.136,108.335 293.3,108.557C293.462,108.771 293.69,108.954 293.984,109.104C294.276,109.247 294.624,109.37 295.028,109.475C295.438,109.572 295.888,109.673 296.376,109.777C296.806,109.868 297.232,109.966 297.656,110.07C298.078,110.168 298.482,110.285 298.866,110.422C299.25,110.559 299.608,110.725 299.94,110.92C300.272,111.115 300.558,111.356 300.8,111.643C301.048,111.923 301.24,112.258 301.376,112.648C301.52,113.039 301.59,113.501 301.59,114.035Z" fill="#8A8C8F"/>
<path d="M307.91,118L307.91,104.24L310.79,104.24L310.79,118L307.91,118Z" fill="#8A8C8F"/>
<path d="M327.402,118L326.182,114.484L320.938,114.484L319.718,118L316.836,118L321.856,104.24L325.254,104.24L330.254,118L327.402,118ZM324.18,108.361C324.102,108.133 324.024,107.906 323.946,107.678C323.874,107.443 323.808,107.232 323.75,107.043C323.698,106.848 323.652,106.688 323.614,106.564C323.582,106.441 323.562,106.372 323.556,106.359C323.548,106.379 323.53,106.451 323.496,106.574C323.464,106.698 323.418,106.854 323.36,107.043C323.308,107.232 323.242,107.443 323.164,107.678C323.092,107.906 323.018,108.133 322.94,108.361L321.582,112.316L325.538,112.316L324.18,108.361Z" fill="#8A8C8F"/>
<path d="M344.708,118L338.712,107.404C338.744,107.691 338.774,107.977 338.8,108.264C338.826,108.511 338.846,108.778 338.858,109.064C338.878,109.351 338.888,109.624 338.888,109.885L338.888,118L336.33,118L336.33,104.24L339.62,104.24L345.704,114.924C345.672,114.65 345.642,114.364 345.616,114.064C345.59,113.811 345.568,113.524 345.548,113.205C345.536,112.886 345.528,112.564 345.528,112.238L345.528,104.24L348.088,104.24L348.088,118L344.708,118Z" fill="#8A8C8F"/>
<path d="M373.128,118L367.132,107.404C367.164,107.691 367.194,107.977 367.22,108.264C367.246,108.511 367.266,108.778 367.278,109.064C367.298,109.351 367.308,109.624 367.308,109.885L367.308,118L364.748,118L364.748,104.24L368.04,104.24L374.124,114.924C374.092,114.65 374.062,114.364 374.036,114.064C374.01,113.811 373.988,113.524 373.968,113.205C373.954,112.886 373.948,112.564 373.948,112.238L373.948,104.24L376.506,104.24L376.506,118L373.128,118Z" fill="#8A8C8F"/>
<path d="M383.402,118L383.402,104.24L394.222,104.24L394.222,106.467L386.282,106.467L386.282,109.924L393.626,109.924L393.626,112.15L386.282,112.15L386.282,115.773L394.622,115.773L394.622,118L383.402,118Z" fill="#8A8C8F"/>
<path d="M414.906,118L411.488,118L409.624,110.041C409.564,109.8 409.5,109.514 409.428,109.182C409.364,108.85 409.302,108.527 409.242,108.215C409.17,107.857 409.106,107.486 409.048,107.102C408.976,107.486 408.904,107.86 408.832,108.225C408.8,108.381 408.768,108.544 408.734,108.713C408.702,108.876 408.666,109.038 408.628,109.201C408.594,109.357 408.562,109.507 408.53,109.65C408.504,109.794 408.474,109.924 408.442,110.041L406.586,118L403.168,118L399.624,104.24L402.544,104.24L404.262,111.896C404.36,112.313 404.45,112.723 404.536,113.127C404.62,113.531 404.698,113.892 404.77,114.211C404.848,114.582 404.92,114.937 404.984,115.275C405.082,114.794 405.176,114.325 405.268,113.869C405.308,113.674 405.35,113.472 405.394,113.264C405.44,113.055 405.482,112.85 405.522,112.648C405.568,112.447 405.61,112.255 405.648,112.072C405.694,111.883 405.734,111.714 405.766,111.564L407.466,104.24L410.688,104.24L412.426,111.564C412.466,111.721 412.504,111.896 412.544,112.092C412.582,112.281 412.622,112.479 412.66,112.688C412.7,112.889 412.738,113.094 412.778,113.303C412.816,113.505 412.852,113.703 412.886,113.898C412.964,114.354 413.042,114.813 413.12,115.275C413.198,114.911 413.28,114.533 413.364,114.143C413.436,113.811 413.516,113.446 413.608,113.049C413.698,112.652 413.79,112.268 413.882,111.896L415.542,104.24L418.462,104.24L414.906,118Z" fill="#8A8C8F"/>
<path d="M435.25,114.035C435.25,114.66 435.136,115.23 434.908,115.744C434.68,116.252 434.324,116.688 433.842,117.053C433.368,117.417 432.756,117.701 432.008,117.902C431.264,118.098 430.38,118.195 429.35,118.195C428.44,118.195 427.636,118.114 426.938,117.951C426.242,117.788 425.644,117.548 425.142,117.229C424.648,116.91 424.244,116.516 423.93,116.047C423.624,115.572 423.404,115.028 423.266,114.416L426.05,113.957C426.128,114.263 426.242,114.543 426.392,114.797C426.542,115.051 426.746,115.272 427.008,115.461C427.274,115.643 427.602,115.786 427.994,115.891C428.39,115.988 428.87,116.037 429.428,116.037C430.406,116.037 431.15,115.891 431.666,115.598C432.186,115.298 432.446,114.833 432.446,114.201C432.446,113.824 432.342,113.514 432.134,113.273C431.926,113.033 431.648,112.834 431.304,112.678C430.958,112.521 430.562,112.391 430.112,112.287C429.664,112.183 429.194,112.082 428.706,111.984C428.316,111.893 427.926,111.799 427.534,111.701C427.144,111.604 426.77,111.486 426.412,111.35C426.06,111.213 425.732,111.05 425.426,110.861C425.12,110.673 424.852,110.441 424.624,110.168C424.402,109.888 424.228,109.562 424.096,109.191C423.974,108.82 423.912,108.384 423.912,107.883C423.912,107.199 424.048,106.613 424.322,106.125C424.594,105.637 424.972,105.24 425.454,104.934C425.942,104.621 426.522,104.393 427.192,104.25C427.864,104.107 428.596,104.035 429.39,104.035C430.288,104.035 431.056,104.107 431.694,104.25C432.34,104.387 432.876,104.598 433.306,104.885C433.742,105.171 434.084,105.533 434.332,105.969C434.586,106.398 434.77,106.903 434.888,107.482L432.094,107.863C431.952,107.271 431.658,106.825 431.216,106.525C430.78,106.226 430.152,106.076 429.332,106.076C428.824,106.076 428.4,106.122 428.062,106.213C427.73,106.298 427.462,106.415 427.26,106.564C427.066,106.714 426.926,106.89 426.842,107.092C426.756,107.287 426.714,107.495 426.714,107.717C426.714,108.055 426.796,108.335 426.958,108.557C427.12,108.771 427.348,108.954 427.642,109.104C427.934,109.247 428.284,109.37 428.686,109.475C429.096,109.572 429.546,109.673 430.034,109.777C430.464,109.868 430.89,109.966 431.314,110.07C431.736,110.168 432.14,110.285 432.524,110.422C432.908,110.559 433.266,110.725 433.598,110.92C433.93,111.115 434.218,111.356 434.458,111.643C434.706,111.923 434.898,112.258 435.034,112.648C435.178,113.039 435.25,113.501 435.25,114.035Z" fill="#8A8C8F"/>
<path d="M460.32,118L459.098,114.484L453.854,114.484L452.634,118L449.752,118L454.772,104.24L458.17,104.24L463.17,118L460.32,118ZM457.096,108.361C457.018,108.133 456.94,107.906 456.862,107.678C456.79,107.443 456.726,107.232 456.666,107.043C456.614,106.848 456.57,106.688 456.53,106.564C456.498,106.441 456.478,106.372 456.472,106.359C456.464,106.379 456.446,106.451 456.412,106.574C456.38,106.698 456.334,106.854 456.276,107.043C456.224,107.232 456.158,107.443 456.08,107.678C456.01,107.906 455.934,108.133 455.856,108.361L454.498,112.316L458.454,112.316L457.096,108.361Z" fill="#8A8C8F"/>
<path d="M475.778,115.939C476.196,115.939 476.596,115.907 476.98,115.842C477.364,115.777 477.718,115.692 478.044,115.588C478.376,115.477 478.672,115.354 478.934,115.217C479.2,115.074 479.418,114.927 479.588,114.777L479.588,112.873L476.228,112.873L476.228,110.744L482.224,110.744L482.224,115.803C481.912,116.122 481.534,116.428 481.092,116.721C480.648,117.007 480.15,117.261 479.598,117.482C479.044,117.697 478.438,117.87 477.78,118C477.13,118.13 476.436,118.195 475.7,118.195C474.484,118.195 473.436,118.02 472.556,117.668C471.678,117.31 470.954,116.815 470.388,116.184C469.822,115.546 469.402,114.79 469.128,113.918C468.862,113.046 468.728,112.092 468.728,111.057C468.728,109.982 468.872,109.012 469.158,108.146C469.444,107.281 469.878,106.545 470.456,105.939C471.042,105.327 471.774,104.859 472.654,104.533C473.54,104.201 474.578,104.035 475.77,104.035C476.636,104.035 477.404,104.12 478.074,104.289C478.75,104.458 479.34,104.699 479.842,105.012C480.35,105.324 480.772,105.702 481.11,106.145C481.456,106.581 481.73,107.072 481.932,107.619L479.274,108.42C479.158,108.133 479.002,107.863 478.806,107.609C478.61,107.349 478.366,107.124 478.074,106.936C477.788,106.74 477.452,106.587 477.068,106.477C476.69,106.359 476.258,106.301 475.77,106.301C475.052,106.301 474.434,106.415 473.914,106.643C473.392,106.864 472.964,107.183 472.624,107.6C472.286,108.016 472.036,108.518 471.872,109.104C471.71,109.683 471.628,110.334 471.628,111.057C471.628,111.773 471.71,112.43 471.872,113.029C472.042,113.628 472.296,114.143 472.634,114.572C472.98,115.002 473.412,115.337 473.934,115.578C474.454,115.819 475.07,115.939 475.778,115.939Z" fill="#8A8C8F"/>
<path d="M489.012,118L489.012,104.24L499.832,104.24L499.832,106.467L491.892,106.467L491.892,109.924L499.236,109.924L499.236,112.15L491.892,112.15L491.892,115.773L500.232,115.773L500.232,118L489.012,118Z" fill="#8A8C8F"/>
<path d="M514.93,118L508.934,107.404C508.968,107.691 508.996,107.977 509.022,108.264C509.048,108.511 509.068,108.778 509.082,109.064C509.1,109.351 509.11,109.624 509.11,109.885L509.11,118L506.552,118L506.552,104.24L509.842,104.24L515.926,114.924C515.894,114.65 515.866,114.364 515.84,114.064C515.812,113.811 515.79,113.524 515.77,113.205C515.758,112.886 515.752,112.564 515.752,112.238L515.752,104.24L518.31,104.24L518.31,118L514.93,118Z" fill="#8A8C8F"/>
<path d="M531.63,115.93C532.172,115.93 532.636,115.855 533.028,115.705C533.424,115.549 533.766,115.347 534.052,115.1C534.346,114.852 534.586,114.572 534.776,114.26C534.97,113.947 535.13,113.632 535.254,113.312L537.764,114.26C537.562,114.755 537.298,115.24 536.972,115.715C536.648,116.19 536.24,116.61 535.752,116.975C535.264,117.339 534.68,117.635 534.004,117.863C533.334,118.085 532.542,118.195 531.63,118.195C530.44,118.195 529.408,118.02 528.536,117.668C527.662,117.31 526.94,116.815 526.368,116.184C525.8,115.546 525.378,114.79 525.098,113.918C524.824,113.046 524.688,112.092 524.688,111.057C524.688,109.982 524.824,109.012 525.098,108.146C525.378,107.281 525.798,106.545 526.358,105.939C526.918,105.327 527.624,104.859 528.476,104.533C529.336,104.201 530.346,104.035 531.504,104.035C532.402,104.035 533.186,104.13 533.858,104.318C534.534,104.507 535.118,104.774 535.606,105.119C536.1,105.458 536.508,105.861 536.826,106.33C537.152,106.792 537.406,107.303 537.588,107.863L535.048,108.557C534.958,108.264 534.818,107.984 534.628,107.717C534.44,107.443 534.2,107.202 533.906,106.994C533.62,106.786 533.282,106.62 532.89,106.496C532.5,106.366 532.058,106.301 531.562,106.301C530.866,106.301 530.266,106.415 529.766,106.643C529.264,106.864 528.85,107.183 528.526,107.6C528.206,108.016 527.968,108.518 527.812,109.104C527.662,109.683 527.588,110.334 527.588,111.057C527.588,111.773 527.662,112.43 527.812,113.029C527.968,113.622 528.21,114.133 528.536,114.562C528.86,114.992 529.278,115.327 529.786,115.568C530.3,115.809 530.914,115.93 531.63,115.93Z" fill="#8A8C8F"/>
<path d="M550.636,112.355L550.636,118L547.764,118L547.764,112.355L542.862,104.24L545.88,104.24L549.18,110.061L552.52,104.24L555.538,104.24L550.636,112.355Z" fill="#8A8C8F"/>
</svg>
