<svg width="70" height="98" viewBox="0 0 70 98" fill="none" xmlns="http://www.w3.org/2000/svg" xmlns:xlink="http://www.w3.org/1999/xlink">
<path d="M11.005,85.861C19.754,89.912 28.909,92.504 35.714,92.504C36.119,92.504 38.873,92.099 44.058,91.37C51.025,89.264 55.967,84.97 59.207,78.732L59.45,78.165C60.989,75.248 61.637,71.765 61.637,67.795C61.637,64.474 60.908,61.395 59.531,58.641C57.344,54.104 53.455,50.216 48.027,47.137C44.301,45.355 42.033,44.383 41.384,44.059L37.901,42.925L36.119,42.358C28.666,40.17 23.886,37.092 22.104,33.365C21.699,32.636 21.375,31.583 21.375,30.044C21.375,27.938 21.618,26.317 22.347,25.021L22.509,24.778C24.048,21.862 26.235,20.079 29.314,19.269C30.043,18.864 31.501,18.702 34.174,18.702C39.44,18.702 46.65,20.89 55.643,25.345L57.83,21.862C49.081,17.001 41.06,14.49 33.688,14.49L28.179,15.219C24.048,16.434 20.807,19.107 18.62,23.158C17.648,24.94 17.243,27.046 17.243,29.639C17.243,31.745 17.648,33.527 18.458,35.148C20.645,40.008 26.073,43.573 34.822,46.246L36.605,46.813C41.222,48.352 44.787,49.892 47.703,51.35C53.212,54.266 57.425,59.37 57.425,67.552C57.425,71.684 56.453,75.329 54.67,78.489C50.944,84.889 43.977,88.21 35.795,88.21C28.585,88.21 21.131,86.266 13.192,82.216L13.354,81.972L15.704,77.922C24.453,81.405 31.096,83.188 35.633,83.188C42.6,83.188 47.541,80.514 50.458,75.41C51.673,73.061 52.402,70.388 52.402,67.633C52.402,62.61 50.215,58.884 45.759,56.292C43.086,54.752 40.898,53.618 38.954,52.97L35.228,51.593L33.445,51.026C23.319,47.948 16.838,43.411 13.921,37.173C12.787,34.824 12.22,32.312 12.22,29.72C12.22,26.236 12.787,23.482 14.002,21.132C16.757,15.705 21.05,12.14 26.721,10.439C27.936,9.71 30.367,9.467 34.093,9.467C42.519,9.467 54.022,13.355 62.529,18.864L64.716,20.079L57.263,31.988L55.156,30.773C48.513,26.479 39.926,23.401 33.931,23.401C31.744,23.401 30.205,23.563 29.395,23.968C27.693,24.697 26.316,26.722 26.316,29.639L26.559,31.178C26.964,31.907 28.098,32.879 29.638,34.095C31.015,35.229 33.688,36.282 37.415,37.578L39.359,38.145C51.592,42.033 59.612,47.704 63.339,55.239C65.445,60.504 66.498,64.636 66.498,67.876C66.498,71.603 65.688,75.654 63.987,79.947L63.42,80.919C59.369,88.858 53.293,93.8 45.111,96.15C42.195,96.959 39.035,97.365 35.552,97.365C25.02,97.365 11.977,93.233 2.094,86.59L-0.013,85.375L12.22,65.689L14.326,66.904C20.969,71.198 29.557,74.276 35.552,74.276C39.278,74.276 41.627,73.142 42.6,70.955C43.005,70.226 43.167,69.416 43.167,68.2C43.167,67.471 43.005,66.985 42.762,66.499L42.6,66.256C41.384,64.069 38.063,62.124 32.311,60.261L30.61,59.694C18.134,55.968 9.79,49.811 5.496,41.224C3.795,37.902 2.985,34.176 2.985,29.882C2.985,25.831 3.795,21.862 5.496,17.811L5.901,16.839C9.952,8.9 16.028,3.958 24.21,1.69C26.397,0.718 29.638,0.313 33.931,0.313C44.058,0.313 55.724,4.363 69.171,12.545L66.579,16.839C54.346,9.305 43.41,5.416 34.012,5.416C33.607,5.416 30.853,5.821 25.668,6.55C18.701,8.657 13.759,12.95 10.519,19.188L10.276,19.755C8.899,23.239 8.17,26.56 8.17,30.044C8.17,33.365 8.899,36.444 10.276,39.198C13.759,46.57 20.969,51.836 32.149,55.158L32.554,55.319L33.931,55.725C41.303,58.074 45.273,60.585 47.136,64.312L47.379,64.879C47.946,66.256 48.189,67.39 48.189,68.363C48.189,70.307 47.946,71.846 47.217,73.061L47.055,73.304C45.678,76.059 43.41,77.841 40.25,78.732C39.521,79.137 38.063,79.299 35.552,79.299C30.529,79.299 24.615,77.76 17.81,74.762L13.921,72.656L6.954,83.917L11.005,85.861Z" fill="#800000"/>
</svg>
