<svg width="110" height="98" viewBox="0 0 110 98" fill="none" xmlns="http://www.w3.org/2000/svg" xmlns:xlink="http://www.w3.org/1999/xlink">
<path d="M75.528,67.552L60.379,96.23L17.929,16.353L6.263,92.342L20.521,92.342L25.22,61.314L26.354,63.421L29.27,68.848L24.815,97.527L0.511,97.527L15.174,0.718L15.984,2.095L55.761,77.112L60.298,85.537L74.151,59.208L74.313,60.18L75.528,67.552ZM55.842,97.446L50.171,97.446L23.032,46.246L16.389,88.696L11.367,88.696L20.359,30.773L55.842,97.446ZM90.11,97.446L85.087,97.446L77.067,44.788L60.298,75.815L20.116,0.231L25.787,0.231L60.298,65.122L79.741,29.234L90.11,97.446ZM94.728,97.446L94.323,95.339L94.485,95.339L83.386,22.672L87.275,15.3L88.49,23.644L99.022,92.261L103.639,92.261L101.29,76.301L90.92,8.657L90.515,5.335L87.194,5.335L82.657,13.76L82.252,14.733L70.019,37.497L60.865,54.833L57.949,49.568L64.429,37.497L84.115,0.231L94.809,0.231L109.472,97.446L94.728,97.446Z" fill="#800000"/>
</svg>
