<svg width="174" height="44" viewBox="0 0 174 44" fill="none" xmlns="http://www.w3.org/2000/svg" xmlns:xlink="http://www.w3.org/1999/xlink">
<path d="M69.209,0.259C70.6,0.259 71.567,1.644 71.086,2.95L56.777,41.818C56.488,42.604 55.738,43.127 54.9,43.127L49.723,43.127C48.884,43.127 48.134,42.603 47.846,41.816L37.514,13.649C36.877,11.912 34.425,11.897 33.767,13.627L23.031,41.849C22.738,42.619 22.002,43.131 21.178,43.138L16.079,43.177C15.226,43.184 14.463,42.65 14.178,41.846L0.367,2.927C-0.095,1.626 0.871,0.259 2.252,0.259L5.548,0.259C6.413,0.259 7.18,0.815 7.449,1.638L17.067,31.078C17.658,32.887 20.203,32.926 20.849,31.136L31.521,1.579C31.808,0.787 32.56,0.259 33.403,0.259L38.542,0.259C39.395,0.259 40.154,0.8 40.432,1.606L50.534,30.883C51.159,32.692 53.724,32.675 54.324,30.857L63.967,1.632C64.238,0.812 65.003,0.259 65.866,0.259L69.209,0.259Z" fill="#909090"/>
<path d="M84.465,0.259C85.569,0.259 86.465,1.154 86.465,2.259L86.465,41.127C86.465,42.232 85.569,43.127 84.465,43.127L81.355,43.127C80.251,43.127 79.355,42.232 79.355,41.127L79.355,2.259C79.355,1.154 80.251,0.259 81.355,0.259L84.465,0.259Z" fill="#909090"/>
<path d="M125.574,43.127C124.939,43.127 124.343,42.826 123.966,42.317L112.196,26.409C111.819,25.899 111.223,25.598 110.589,25.598L105.003,25.598C103.898,25.598 103.003,26.494 103.003,27.598L103.003,41.127C103.003,42.232 102.107,43.127 101.003,43.127L97.894,43.127C96.789,43.127 95.894,42.232 95.894,41.127L95.894,2.259C95.894,1.154 96.789,0.259 97.894,0.259L113.472,0.259C117.586,0.259 121.05,0.812 123.862,1.919C126.727,3.026 128.862,4.523 130.269,6.409C131.675,8.295 132.378,10.448 132.378,12.867C132.378,15.819 131.284,18.423 129.097,20.678C127.529,22.334 125.371,23.581 122.623,24.419C121.186,24.857 120.499,26.6 121.409,27.795L130.636,39.916C131.639,41.232 130.7,43.127 129.045,43.127L125.574,43.127ZM103.003,19.108C103.003,20.213 103.898,21.109 105.003,21.109L113.472,21.109C117.326,21.109 120.216,20.371 122.144,18.894C124.071,17.377 125.034,15.368 125.034,12.867C125.034,10.325 124.071,8.357 122.144,6.963C120.269,5.568 117.378,4.871 113.472,4.871L105.003,4.871C103.898,4.871 103.003,5.767 103.003,6.871L103.003,19.108Z" fill="#909090"/>
<path d="M153.699,4.81C152.594,4.81 151.699,5.705 151.699,6.81L151.699,17.14C151.699,18.245 152.594,19.14 153.699,19.14L169.543,19.14C170.647,19.14 171.543,20.036 171.543,21.14L171.543,21.753C171.543,22.858 170.647,23.753 169.543,23.753L153.699,23.753C152.594,23.753 151.699,24.649 151.699,25.753L151.699,36.514C151.699,37.619 152.594,38.514 153.699,38.514L171.886,38.514C172.991,38.514 173.886,39.41 173.886,40.514L173.886,41.127C173.886,42.232 172.991,43.127 171.886,43.127L146.59,43.127C145.485,43.127 144.59,42.232 144.59,41.127L144.59,2.197C144.59,1.093 145.485,0.197 146.59,0.197L171.887,0.197C172.991,0.197 173.886,1.093 173.886,2.197L173.886,2.81C173.886,3.914 172.991,4.81 171.886,4.81L153.699,4.81Z" fill="#909090"/>
</svg>
